<svg width="14" height="20" viewBox="0 0 14 20" fill="none" xmlns="http://www.w3.org/2000/svg">
<path d="M13.7076 9.80175L4.95759 19.1768C4.86487 19.2757 4.74247 19.3418 4.60888 19.3651C4.47528 19.3884 4.33773 19.3676 4.21699 19.3059C4.09625 19.2441 3.99886 19.1448 3.93953 19.0229C3.88019 18.9009 3.86213 18.763 3.88806 18.6299L5.03338 12.901L0.531031 11.2103C0.434337 11.1742 0.348109 11.1146 0.280049 11.037C0.21199 10.9594 0.164219 10.8661 0.141005 10.7655C0.117792 10.6649 0.119858 10.5601 0.147019 10.4605C0.17418 10.3609 0.22559 10.2696 0.296656 10.1947L9.04666 0.819721C9.13938 0.720764 9.26178 0.654652 9.39537 0.631359C9.52897 0.608067 9.66652 0.628858 9.78726 0.690597C9.908 0.752335 10.0054 0.851671 10.0647 0.973613C10.1241 1.09555 10.1421 1.33349 10.1162 1.3666L8.96775 7.10175L13.4701 8.79003C13.5661 8.82645 13.6516 8.88594 13.7191 8.96326C13.7867 9.04058 13.8341 9.13334 13.8573 9.23334C13.8805 9.33335 13.8786 9.43753 13.852 9.53666C13.8253 9.6358 13.7747 9.72684 13.7045 9.80175H13.7076Z" fill="#D5D7DB"/>
</svg>