<svg width="30" height="18" viewBox="0 0 30 18" fill="none" xmlns="http://www.w3.org/2000/svg">
<g clip-path="url(#clip0_2600_39072)">
<path d="M8.52549 6.57201C8.52549 6.93714 8.56497 7.23319 8.63405 7.4503C8.71299 7.6674 8.81168 7.90425 8.94984 8.16082C8.99918 8.23977 9.01891 8.31872 9.01891 8.3878C9.01891 8.48648 8.9597 8.58517 8.83141 8.68385L8.2097 9.09832C8.12089 9.15753 8.03207 9.18714 7.95312 9.18714C7.85444 9.18714 7.75576 9.1378 7.65707 9.04898C7.51891 8.90096 7.40049 8.74306 7.30181 8.58517C7.20312 8.4174 7.10444 8.2299 6.99589 8.00293C6.22615 8.91082 5.25905 9.36477 4.09457 9.36477C3.26562 9.36477 2.60444 9.12793 2.12089 8.65425C1.63734 8.18056 1.39062 7.54898 1.39062 6.75951C1.39062 5.92069 1.68668 5.23977 2.28865 4.72661C2.89062 4.21346 3.68997 3.95688 4.70641 3.95688C5.04194 3.95688 5.38734 3.98648 5.75247 4.03582C6.1176 4.08517 6.4926 4.16411 6.88734 4.25293V3.53253C6.88734 2.78253 6.72944 2.25951 6.42352 1.95359C6.10773 1.64767 5.57483 1.49964 4.81497 1.49964C4.46957 1.49964 4.11431 1.53911 3.74918 1.62793C3.38405 1.71675 3.02878 1.8253 2.68339 1.96346C2.52549 2.03253 2.40707 2.07201 2.33799 2.09175C2.26891 2.11148 2.21957 2.12135 2.1801 2.12135C2.04194 2.12135 1.97286 2.02267 1.97286 1.81543V1.33188C1.97286 1.17398 1.9926 1.05556 2.04194 0.986482C2.09128 0.917403 2.1801 0.848324 2.31826 0.779245C2.66365 0.601614 3.07812 0.453588 3.56168 0.335167C4.04523 0.206877 4.55839 0.147667 5.10115 0.147667C6.27549 0.147667 7.13405 0.414114 7.68668 0.947009C8.22944 1.4799 8.50576 2.28911 8.50576 3.37464V6.57201H8.52549ZM4.51891 8.07201C4.84457 8.07201 5.1801 8.0128 5.53536 7.89438C5.89062 7.77596 6.20641 7.55885 6.47286 7.2628C6.63076 7.0753 6.74918 6.86806 6.80839 6.63122C6.8676 6.39438 6.90707 6.10819 6.90707 5.77267V5.35819C6.62089 5.28911 6.31497 5.2299 5.99918 5.19043C5.68339 5.15096 5.37747 5.13122 5.07155 5.13122C4.41036 5.13122 3.92681 5.25951 3.60115 5.52596C3.27549 5.7924 3.1176 6.1674 3.1176 6.66082C3.1176 7.12464 3.23602 7.47004 3.48273 7.70688C3.71957 7.95359 4.06497 8.07201 4.51891 8.07201ZM12.4433 9.1378C12.2656 9.1378 12.1472 9.10819 12.0683 9.03911C11.9893 8.9799 11.9202 8.84175 11.861 8.65425L9.54194 1.02596C9.48273 0.828587 9.45312 0.700298 9.45312 0.631219C9.45312 0.473324 9.53207 0.384509 9.68997 0.384509H10.6571C10.8446 0.384509 10.9729 0.414114 11.0419 0.483193C11.1209 0.542403 11.1801 0.680561 11.2393 0.868061L12.8972 7.40096L14.4367 0.868061C14.486 0.670693 14.5452 0.542403 14.6242 0.483193C14.7031 0.423982 14.8413 0.384509 15.0189 0.384509H15.8084C15.9959 0.384509 16.1242 0.414114 16.2031 0.483193C16.2821 0.542403 16.3512 0.680561 16.3906 0.868061L17.9498 7.4799L19.6571 0.868061C19.7163 0.670693 19.7854 0.542403 19.8544 0.483193C19.9334 0.423982 20.0617 0.384509 20.2393 0.384509H21.1571C21.315 0.384509 21.4038 0.463456 21.4038 0.631219C21.4038 0.680561 21.3939 0.729903 21.384 0.789114C21.3742 0.848324 21.3544 0.927272 21.315 1.03582L18.9367 8.66411C18.8775 8.86148 18.8084 8.98977 18.7294 9.04898C18.6505 9.10819 18.5222 9.14767 18.3544 9.14767H17.5058C17.3183 9.14767 17.19 9.11806 17.111 9.04898C17.0321 8.9799 16.963 8.85161 16.9235 8.65425L15.3939 2.28911L13.8742 8.64438C13.8248 8.84175 13.7656 8.97003 13.6867 9.03911C13.6077 9.10819 13.4696 9.1378 13.2919 9.1378H12.4433ZM25.1242 9.40425C24.611 9.40425 24.0979 9.34503 23.6044 9.22661C23.111 9.10819 22.7261 8.9799 22.4696 8.83188C22.3117 8.74306 22.2031 8.64438 22.1637 8.55556C22.1242 8.46675 22.1044 8.36806 22.1044 8.27925V7.77596C22.1044 7.56872 22.1834 7.47003 22.3314 7.47003C22.3906 7.47003 22.4498 7.4799 22.509 7.49964C22.5683 7.51938 22.6571 7.55885 22.7558 7.59832C23.0913 7.74635 23.4564 7.86477 23.8413 7.94372C24.236 8.02267 24.6209 8.06214 25.0156 8.06214C25.6373 8.06214 26.1209 7.95359 26.4564 7.73648C26.7919 7.51938 26.9696 7.20359 26.9696 6.79898C26.9696 6.52267 26.8808 6.29569 26.7031 6.10819C26.5255 5.92069 26.19 5.75293 25.7064 5.59504L24.2755 5.15096C23.5551 4.92398 23.0222 4.58846 22.6965 4.14438C22.3709 3.71017 22.2031 3.22661 22.2031 2.71346C22.2031 2.29898 22.2919 1.93385 22.4696 1.61806C22.6472 1.30227 22.884 1.02596 23.1801 0.808851C23.4761 0.581877 23.8117 0.414114 24.2064 0.295693C24.6012 0.177272 25.0156 0.12793 25.4498 0.12793C25.6669 0.12793 25.8939 0.137798 26.111 0.167403C26.338 0.197009 26.5452 0.236482 26.7525 0.275956C26.9498 0.325298 27.1373 0.37464 27.315 0.433851C27.4926 0.493061 27.6308 0.552272 27.7294 0.611482C27.8676 0.69043 27.9663 0.769377 28.0255 0.858193C28.0847 0.93714 28.1143 1.04569 28.1143 1.18385V1.64767C28.1143 1.8549 28.0354 1.96346 27.8873 1.96346C27.8084 1.96346 27.6801 1.92398 27.5123 1.84503C26.9498 1.58846 26.3183 1.46017 25.6176 1.46017C25.0551 1.46017 24.611 1.54898 24.3051 1.73648C23.9992 1.92398 23.8413 2.21017 23.8413 2.61477C23.8413 2.89109 23.94 3.12793 24.1373 3.31543C24.3347 3.50293 24.6998 3.69043 25.2229 3.85819L26.6242 4.30227C27.3347 4.52925 27.8479 4.84504 28.1538 5.24964C28.4597 5.65425 28.6077 6.11806 28.6077 6.63122C28.6077 7.05556 28.5189 7.44043 28.3511 7.77596C28.1735 8.11148 27.9367 8.40753 27.6308 8.64438C27.3248 8.89109 26.9597 9.06872 26.5354 9.19701C26.0913 9.33517 25.6275 9.40425 25.1242 9.40425Z" fill="white"/>
<path fill-rule="evenodd" clip-rule="evenodd" d="M26.9896 14.2007C23.7429 16.5988 19.0258 17.8718 14.9699 17.8718C9.28564 17.8718 4.16393 15.7698 0.295512 12.2764C-0.0104095 12.0001 0.265906 11.6251 0.631038 11.8422C4.81525 14.2698 9.97643 15.7402 15.3152 15.7402C18.9172 15.7402 22.8745 14.9902 26.5159 13.4507C27.0587 13.204 27.5225 13.806 26.9896 14.2007Z" fill="#FF9900"/>
<path fill-rule="evenodd" clip-rule="evenodd" d="M28.3425 12.6606C27.928 12.1277 25.5991 12.404 24.5432 12.5323C24.2274 12.5718 24.178 12.2955 24.4642 12.0882C26.3195 10.7856 29.3688 11.1606 29.7241 11.5948C30.0793 12.0389 29.6254 15.0882 27.8886 16.5488C27.6221 16.7757 27.3655 16.6573 27.4839 16.3613C27.8787 15.3843 28.757 13.1836 28.3425 12.6606Z" fill="#FF9900"/>
</g>
<defs>
<clipPath id="clip0_2600_39072">
<rect width="30" height="17.9605" fill="white" transform="translate(0 0.0195312)"/>
</clipPath>
</defs>
</svg>
