<svg width="36" height="36" viewBox="0 0 36 36" fill="none" xmlns="http://www.w3.org/2000/svg">
<path fill-rule="evenodd" clip-rule="evenodd" d="M32.1878 8.5668L33.027 6.51104C33.027 6.51104 31.959 5.36896 30.6625 4.0746C29.3658 2.78024 26.6199 3.54161 26.6199 3.54161L23.4927 0H18.0009H12.5092L9.38194 3.54161C9.38194 3.54161 6.63609 2.78024 5.33941 4.0746C4.04275 5.36896 2.97491 6.51104 2.97491 6.51104L3.81393 8.5668L2.74609 11.6124C2.74609 11.6124 5.88669 23.4867 6.25471 24.9367C6.97932 27.792 7.47508 28.896 9.5345 30.3425C11.5939 31.7894 15.3313 34.3017 15.9415 34.6825C16.5517 35.0632 17.3145 35.7117 18.0009 35.7117C18.6874 35.7117 19.4502 35.0632 20.0603 34.6825C20.6705 34.3017 24.408 31.7894 26.4674 30.3425C28.5268 28.896 29.0226 27.792 29.7472 24.9367C30.1151 23.4867 33.2558 11.6124 33.2558 11.6124L32.1878 8.5668Z" fill="url(#paint0_linear_2357_24144)"/>
<path fill-rule="evenodd" clip-rule="evenodd" d="M21.8886 6.43538C22.3462 6.43538 25.7404 5.7882 25.7404 5.7882C25.7404 5.7882 29.7629 10.6421 29.7629 11.6795C29.7629 12.5372 29.4169 12.8729 29.0096 13.2683C28.9242 13.3511 28.8362 13.4365 28.7481 13.5299L25.732 16.727C25.7021 16.7586 25.6689 16.7921 25.6336 16.8274C25.3326 17.1296 24.8893 17.5745 25.2021 18.3135C25.223 18.3629 25.2445 18.4131 25.2663 18.464C25.6093 19.2647 26.0327 20.253 25.4937 21.2546C24.9205 22.3199 23.9384 23.031 23.3092 22.9134C22.6799 22.7958 21.2021 22.0249 20.6586 21.6727C20.1152 21.3206 18.3928 19.9026 18.3928 19.36C18.3928 18.9075 19.6315 18.1547 20.2334 17.789C20.3531 17.7162 20.4476 17.6588 20.5022 17.6221C20.5643 17.5803 20.6682 17.5158 20.7961 17.4365C21.3454 17.0958 22.3373 16.4807 22.3622 16.2079C22.3929 15.8716 22.3812 15.773 21.9385 14.9422C21.8443 14.7655 21.7341 14.5763 21.6203 14.3807C21.1986 13.6565 20.7265 12.8457 20.831 12.2648C20.949 11.6091 21.9782 11.2332 22.8501 10.9148C22.959 10.8749 23.0655 10.836 23.1675 10.7976C23.4219 10.7017 23.7416 10.5822 24.0756 10.4573C24.946 10.1318 25.9131 9.7702 26.0726 9.69679C26.2934 9.59514 26.2364 9.49838 25.5677 9.4351C25.4792 9.42673 25.3692 9.41506 25.243 9.40167C24.4152 9.31385 22.8885 9.1519 22.1463 9.35844C22.0003 9.39905 21.8367 9.44329 21.6651 9.48968C20.8312 9.71509 19.8093 9.99133 19.7111 10.1506C19.6939 10.1784 19.677 10.2024 19.6611 10.225C19.5672 10.3583 19.5059 10.4452 19.6099 11.0115C19.6408 11.1801 19.7045 11.5118 19.7831 11.922C20.0135 13.1229 20.3727 14.9962 20.418 15.417C20.4243 15.4759 20.4313 15.5327 20.438 15.5874C20.4957 16.0569 20.534 16.3693 19.9878 16.494C19.9424 16.5043 19.8946 16.5153 19.845 16.5267C19.2286 16.6678 18.3251 16.8748 17.9986 16.8748C17.672 16.8748 16.7677 16.6677 16.1514 16.5265C16.1021 16.5152 16.0546 16.5043 16.0094 16.494C15.4631 16.3693 15.5015 16.0569 15.5591 15.5874C15.5658 15.5327 15.5727 15.4759 15.5791 15.417C15.6245 14.9955 15.9847 13.1177 16.215 11.917C16.2932 11.5092 16.3565 11.1794 16.3873 11.0115C16.4912 10.4452 16.43 10.3583 16.3361 10.2251C16.3201 10.2024 16.3033 10.1784 16.2861 10.1506C16.1879 9.99133 15.1661 9.71511 14.3322 9.4897C14.1605 9.44331 13.9968 9.39905 13.8508 9.35844C13.1086 9.15193 11.5821 9.31385 10.7543 9.40167C10.628 9.41506 10.518 9.42673 10.4294 9.4351C9.76082 9.49838 9.70377 9.59514 9.92451 9.69679C10.084 9.77018 11.0506 10.1316 11.9209 10.457C12.2551 10.582 12.5751 10.7016 12.8297 10.7976C12.9317 10.8361 13.0383 10.875 13.1473 10.9148C14.019 11.2332 15.0482 11.6092 15.1662 12.2648C15.2706 12.8456 14.7986 13.6563 14.3771 14.3804C14.2632 14.576 14.1529 14.7654 14.0587 14.9422C13.616 15.773 13.6042 15.8716 13.6349 16.2079C13.6598 16.4806 14.6514 17.0956 15.2007 17.4363C15.3288 17.5157 15.4328 17.5802 15.495 17.6221C15.5495 17.6587 15.6439 17.7161 15.7635 17.7888C16.3653 18.1545 17.6043 18.9074 17.6043 19.36C17.6043 19.9026 15.882 21.3206 15.3385 21.6727C14.7951 22.0249 13.3173 22.7958 12.688 22.9134C12.0587 23.031 11.0767 22.3199 10.5034 21.2546C9.96458 20.2531 10.3878 19.2648 10.7307 18.4642C10.7526 18.4132 10.7741 18.3629 10.795 18.3135C11.1079 17.5744 10.6645 17.1294 10.3634 16.8273C10.3282 16.792 10.295 16.7586 10.2651 16.727C10.1001 16.552 9.2872 15.6904 8.53265 14.8905C7.98258 14.3075 7.46353 13.7573 7.24906 13.5299C7.16094 13.4366 7.07293 13.3511 6.98762 13.2683C6.58025 12.8729 6.23438 12.5372 6.23438 11.6795C6.23438 10.6421 10.2568 5.7882 10.2568 5.7882C10.2568 5.7882 13.651 6.43538 14.1086 6.43538C14.4738 6.43538 15.179 6.19298 15.914 5.94027C16.1001 5.87629 16.2882 5.81165 16.4731 5.75012C17.3884 5.44557 17.9986 5.44336 17.9986 5.44336C17.9986 5.44336 18.6088 5.44557 19.5241 5.75012C19.709 5.81165 19.8971 5.87629 20.0832 5.94027C20.8182 6.19298 21.5234 6.43538 21.8886 6.43538ZM21.3061 23.6041C22.0236 23.9732 22.5326 24.235 22.725 24.3552C22.974 24.5108 22.8221 24.8042 22.5954 24.9642C22.3685 25.1243 19.3205 27.4805 19.0248 27.7406C18.9869 27.7742 18.9468 27.8102 18.905 27.8478C18.6199 28.1042 18.2564 28.4315 17.9986 28.4315C17.7408 28.4315 17.377 28.1039 17.0919 27.8475C17.0503 27.8099 17.0103 27.7739 16.9725 27.7406C16.6766 27.4805 13.6287 25.1243 13.4019 24.9642C13.1751 24.8042 13.0233 24.5108 13.2722 24.3552C13.4648 24.2349 13.9743 23.9729 14.6925 23.6034C14.903 23.4951 15.1315 23.3776 15.3752 23.2517C16.45 22.6965 17.7896 22.2245 17.9986 22.2245C18.2077 22.2245 19.5472 22.6965 20.6222 23.2517C20.8663 23.3779 21.0952 23.4956 21.3061 23.6041Z" fill="white"/>
<path fill-rule="evenodd" clip-rule="evenodd" d="M26.6203 3.54161L23.4931 0H18.0013H12.5096L9.38237 3.54161C9.38237 3.54161 6.6365 2.78024 5.33984 4.0746C5.33984 4.0746 9.00099 3.74468 10.2595 5.78771C10.2595 5.78771 13.6537 6.43492 14.1114 6.43492C14.569 6.43492 15.5606 6.05422 16.4759 5.74966C17.3912 5.44511 18.0013 5.4429 18.0013 5.4429C18.0013 5.4429 18.6115 5.44511 19.5268 5.74966C20.4421 6.05422 21.4337 6.43492 21.8913 6.43492C22.349 6.43492 25.7432 5.78771 25.7432 5.78771C27.0017 3.74468 30.6629 4.0746 30.6629 4.0746C29.3662 2.78024 26.6203 3.54161 26.6203 3.54161Z" fill="url(#paint1_linear_2357_24144)"/>
<defs>
<linearGradient id="paint0_linear_2357_24144" x1="2.74609" y1="35.9637" x2="33.2558" y2="35.9637" gradientUnits="userSpaceOnUse">
<stop stop-color="#FF5500"/>
<stop offset="0.409877" stop-color="#FF5500"/>
<stop offset="0.581981" stop-color="#FF2000"/>
<stop offset="1" stop-color="#FF2000"/>
</linearGradient>
<linearGradient id="paint1_linear_2357_24144" x1="5.88388" y1="6.41119" x2="30.6629" y2="6.41119" gradientUnits="userSpaceOnUse">
<stop stop-color="#FF452A"/>
<stop offset="1" stop-color="#FF2000"/>
</linearGradient>
</defs>
</svg>