<svg width="36" height="36" viewBox="0 0 36 36" fill="none" xmlns="http://www.w3.org/2000/svg">
<g clip-path="url(#clip0_2357_24116)">
<path d="M18 26.9961C22.9706 26.9961 27 22.9667 27 17.9961C27 13.0255 22.9706 8.99609 18 8.99609C13.0294 8.99609 9 13.0255 9 17.9961C9 22.9667 13.0294 26.9961 18 26.9961Z" fill="white"/>
<path d="M18.0011 9.00003H33.587C32.0076 6.26357 29.7356 3.99116 26.9995 2.41129C24.2633 0.831416 21.1594 -0.000220403 17.9999 4.38149e-08C14.8404 0.00022049 11.7366 0.832289 9.00065 2.41254C6.2647 3.99279 3.99304 6.26552 2.41406 9.00221L10.207 22.5L10.214 22.4982C9.42124 21.1312 9.00289 19.5793 9.00111 17.999C8.99934 16.4188 9.4142 14.8659 10.2039 13.4971C10.9935 12.1283 12.1301 10.9918 13.499 10.2023C14.8679 9.41278 16.4208 8.99809 18.0011 9.00003Z" fill="url(#paint0_linear_2357_24116)"/>
<path d="M18 25.125C21.935 25.125 25.125 21.935 25.125 18C25.125 14.065 21.935 10.875 18 10.875C14.065 10.875 10.875 14.065 10.875 18C10.875 21.935 14.065 25.125 18 25.125Z" fill="#1A73E8"/>
<path d="M25.7923 22.5018L17.9993 35.9996C21.1588 36.0001 24.2628 35.1686 26.999 33.589C29.7353 32.0093 32.0075 29.7371 33.587 27.0007C35.1666 24.2644 35.9979 21.1604 35.9973 18.0009C35.9967 14.8414 35.1643 11.7377 33.5838 9.00195H17.998L17.9961 9.00893C19.5764 9.00588 21.1295 9.4195 22.499 10.2081C23.8684 10.9967 25.0058 12.1324 25.7964 13.5007C26.587 14.869 27.0029 16.4215 27.0022 18.0018C27.0015 19.5821 26.5841 21.1342 25.7923 22.5018Z" fill="url(#paint1_linear_2357_24116)"/>
<path d="M10.2052 22.5022L2.41224 9.00439C0.832082 11.7404 0.000117758 14.8442 1.24999e-08 18.0037C-0.000117733 21.1632 0.831616 24.2671 2.41157 27.0032C3.99152 29.7394 6.264 32.0113 9.00051 33.5905C11.737 35.1698 14.8411 36.0008 18.0006 35.9999L25.7936 22.5021L25.7885 22.497C25.001 23.867 23.8662 25.0053 22.4985 25.797C21.1309 26.5886 19.5787 27.0058 17.9984 27.0063C16.4181 27.0068 14.8656 26.5907 13.4974 25.8C12.1292 25.0092 10.9936 23.8718 10.2052 22.5022Z" fill="url(#paint2_linear_2357_24116)"/>
</g>
<defs>
<linearGradient id="paint0_linear_2357_24116" x1="2.41406" y1="11.25" x2="33.587" y2="11.25" gradientUnits="userSpaceOnUse">
<stop stop-color="#D93025"/>
<stop offset="1" stop-color="#EA4335"/>
</linearGradient>
<linearGradient id="paint1_linear_2357_24116" x1="15.5402" y1="35.759" x2="31.1267" y2="8.7624" gradientUnits="userSpaceOnUse">
<stop stop-color="#FCC934"/>
<stop offset="1" stop-color="#FBBC04"/>
</linearGradient>
<linearGradient id="paint2_linear_2357_24116" x1="19.9473" y1="34.876" x2="4.36081" y2="7.8794" gradientUnits="userSpaceOnUse">
<stop stop-color="#1E8E3E"/>
<stop offset="1" stop-color="#34A853"/>
</linearGradient>
<clipPath id="clip0_2357_24116">
<rect width="36" height="36" fill="white"/>
</clipPath>
</defs>
</svg>