<svg width="36" height="36" viewBox="0 0 36 36" fill="none" xmlns="http://www.w3.org/2000/svg">
<g clip-path="url(#clip0_2357_24130)">
<path d="M32.5016 26.7891C32.0188 27.0399 31.521 27.2607 31.0109 27.45C29.3959 28.0511 27.6857 28.356 25.9625 28.35C19.3109 28.35 13.5172 23.7797 13.5172 17.9016C13.5258 17.1145 13.7441 16.3439 14.1494 15.6691C14.5548 14.9943 15.1326 14.4398 15.8234 14.0625C9.80469 14.3156 8.25781 20.5875 8.25781 24.2578C8.25781 34.6641 17.8344 35.7047 19.9016 35.7047C21.0125 35.7047 22.6859 35.3813 23.6984 35.0578L23.8812 35.0016C27.756 33.6625 31.0592 31.0437 33.2469 27.5766C33.3105 27.4712 33.3377 27.3479 33.3245 27.2256C33.3114 27.1033 33.2584 26.9886 33.1738 26.8993C33.0892 26.8099 32.9777 26.7507 32.8563 26.7308C32.7348 26.7109 32.6102 26.7314 32.5016 26.7891Z" fill="url(#paint0_linear_2357_24130)"/>
<path opacity="0.35" d="M32.5016 26.7891C32.0188 27.0399 31.521 27.2607 31.0109 27.45C29.3959 28.0511 27.6857 28.356 25.9625 28.35C19.3109 28.35 13.5172 23.7797 13.5172 17.9016C13.5258 17.1145 13.7441 16.3439 14.1494 15.6691C14.5548 14.9943 15.1326 14.4398 15.8234 14.0625C9.80469 14.3156 8.25781 20.5875 8.25781 24.2578C8.25781 34.6641 17.8344 35.7047 19.9016 35.7047C21.0125 35.7047 22.6859 35.3813 23.6984 35.0578L23.8812 35.0016C27.756 33.6625 31.0592 31.0437 33.2469 27.5766C33.3105 27.4712 33.3377 27.3479 33.3245 27.2256C33.3114 27.1033 33.2584 26.9886 33.1738 26.8993C33.0892 26.8099 32.9777 26.7507 32.8563 26.7308C32.7348 26.7109 32.6102 26.7314 32.5016 26.7891Z" fill="url(#paint1_radial_2357_24130)"/>
<path d="M14.8625 33.9324C13.6107 33.155 12.5257 32.1369 11.6703 30.9371C10.6934 29.6 10.021 28.0654 9.7002 26.4408C9.37941 24.8163 9.41802 23.1412 9.81333 21.5332C10.2086 19.9252 10.9511 18.4231 11.9885 17.1325C13.0259 15.8418 14.3333 14.7939 15.8187 14.0621C16.2687 13.8512 17.014 13.4855 18.0125 13.4996C18.715 13.505 19.4068 13.6729 20.0338 13.99C20.6607 14.3072 21.2059 14.765 21.6265 15.3277C22.1923 16.0886 22.5025 17.0093 22.5125 17.9574C22.5125 17.9293 25.9578 6.76367 11.2625 6.76367C5.08903 6.76367 0.0124656 12.6137 0.0124656 17.7605C-0.0120896 20.4793 0.569169 23.1694 1.71403 25.6355C3.58894 29.6279 6.86447 32.7929 10.9188 34.5298C14.9732 36.2666 19.5241 36.4544 23.7078 35.0574C22.2421 35.5203 20.6933 35.6595 19.1685 35.4653C17.6438 35.271 16.1794 34.748 14.8765 33.9324H14.8625Z" fill="url(#paint2_linear_2357_24130)"/>
<path opacity="0.41" d="M14.8625 33.9324C13.6107 33.155 12.5257 32.1369 11.6703 30.9371C10.6934 29.6 10.021 28.0654 9.7002 26.4408C9.37941 24.8163 9.41802 23.1412 9.81333 21.5332C10.2086 19.9252 10.9511 18.4231 11.9885 17.1325C13.0259 15.8418 14.3333 14.7939 15.8187 14.0621C16.2687 13.8512 17.014 13.4855 18.0125 13.4996C18.715 13.505 19.4068 13.6729 20.0338 13.99C20.6607 14.3072 21.2059 14.765 21.6265 15.3277C22.1923 16.0886 22.5025 17.0093 22.5125 17.9574C22.5125 17.9293 25.9578 6.76367 11.2625 6.76367C5.08903 6.76367 0.0124656 12.6137 0.0124656 17.7605C-0.0120896 20.4793 0.569169 23.1694 1.71403 25.6355C3.58894 29.6279 6.86447 32.7929 10.9188 34.5298C14.9732 36.2666 19.5241 36.4544 23.7078 35.0574C22.2421 35.5203 20.6933 35.6595 19.1685 35.4653C17.6438 35.271 16.1794 34.748 14.8765 33.9324H14.8625Z" fill="url(#paint3_radial_2357_24130)"/>
<path d="M21.4312 20.925C21.3047 21.0656 20.9531 21.2766 20.9531 21.7125C20.9531 22.0781 21.1922 22.4438 21.6281 22.7391C23.6391 24.1453 27.45 23.9484 27.4641 23.9484C28.9632 23.9475 30.4346 23.5444 31.725 22.7812C33.0241 22.0214 34.102 20.9352 34.8519 19.6303C35.6018 18.3254 35.9976 16.8472 36 15.3422C36.0422 12.1922 34.875 10.0969 34.4109 9.16875C31.4156 3.34687 24.9891 8.81216e-08 18 8.81216e-08C13.2696 -0.000467658 8.72921 1.86117 5.36074 5.18227C1.99227 8.50338 0.0665207 13.017 0 17.7469C0.0703125 12.6141 5.175 8.46562 11.25 8.46562C11.7422 8.46562 14.5547 8.50781 17.1562 9.87187C18.984 10.7801 20.4975 12.2153 21.5016 13.9922C22.3594 15.4828 22.5141 17.3813 22.5141 18.1406C22.5141 18.9 22.1344 20.0109 21.4172 20.9391L21.4312 20.925Z" fill="url(#paint4_radial_2357_24130)"/>
<path d="M21.4312 20.925C21.3047 21.0656 20.9531 21.2766 20.9531 21.7125C20.9531 22.0781 21.1922 22.4438 21.6281 22.7391C23.6391 24.1453 27.45 23.9484 27.4641 23.9484C28.9632 23.9475 30.4346 23.5444 31.725 22.7812C33.0241 22.0214 34.102 20.9352 34.8519 19.6303C35.6018 18.3254 35.9976 16.8472 36 15.3422C36.0422 12.1922 34.875 10.0969 34.4109 9.16875C31.4156 3.34687 24.9891 8.81216e-08 18 8.81216e-08C13.2696 -0.000467658 8.72921 1.86117 5.36074 5.18227C1.99227 8.50338 0.0665207 13.017 0 17.7469C0.0703125 12.6141 5.175 8.46562 11.25 8.46562C11.7422 8.46562 14.5547 8.50781 17.1562 9.87187C18.984 10.7801 20.4975 12.2153 21.5016 13.9922C22.3594 15.4828 22.5141 17.3813 22.5141 18.1406C22.5141 18.9 22.1344 20.0109 21.4172 20.9391L21.4312 20.925Z" fill="url(#paint5_radial_2357_24130)"/>
</g>
<defs>
<linearGradient id="paint0_linear_2357_24130" x1="8.25781" y1="24.8906" x2="33.3453" y2="24.8906" gradientUnits="userSpaceOnUse">
<stop stop-color="#0C59A4"/>
<stop offset="1" stop-color="#114A8B"/>
</linearGradient>
<radialGradient id="paint1_radial_2357_24130" cx="0" cy="0" r="1" gradientUnits="userSpaceOnUse" gradientTransform="translate(22.1094 25.0798) scale(13.4156 12.7448)">
<stop offset="0.7" stop-opacity="0"/>
<stop offset="0.9" stop-opacity="0.5"/>
<stop offset="1"/>
</radialGradient>
<linearGradient id="paint2_linear_2357_24130" x1="21.4718" y1="14.0059" x2="5.82028" y2="31.0637" gradientUnits="userSpaceOnUse">
<stop stop-color="#1B9DE2"/>
<stop offset="0.2" stop-color="#1595DF"/>
<stop offset="0.7" stop-color="#0680D7"/>
<stop offset="1" stop-color="#0078D4"/>
</linearGradient>
<radialGradient id="paint3_radial_2357_24130" cx="0" cy="0" r="1" gradientTransform="matrix(3.02062 -19.9361 -16.11 -2.4165 9.9202 27.9751)" gradientUnits="userSpaceOnUse">
<stop offset="0.8" stop-opacity="0"/>
<stop offset="0.9" stop-opacity="0.5"/>
<stop offset="1"/>
</radialGradient>
<radialGradient id="paint4_radial_2357_24130" cx="0" cy="0" r="1" gradientTransform="matrix(-1.1385 28.4625 60.6251 2.277 3.64078 6.65381)" gradientUnits="userSpaceOnUse">
<stop stop-color="#35C1F1"/>
<stop offset="0.1" stop-color="#34C1ED"/>
<stop offset="0.2" stop-color="#2FC2DF"/>
<stop offset="0.3" stop-color="#2BC3D2"/>
<stop offset="0.7" stop-color="#36C752"/>
</radialGradient>
<radialGradient id="paint5_radial_2357_24130" cx="0" cy="0" r="1" gradientTransform="matrix(3.83119 13.1355 10.6726 -3.14705 33.7584 10.8703)" gradientUnits="userSpaceOnUse">
<stop stop-color="#66EB6E"/>
<stop offset="1" stop-color="#66EB6E" stop-opacity="0"/>
</radialGradient>
<clipPath id="clip0_2357_24130">
<rect width="36" height="36" fill="white"/>
</clipPath>
</defs>
</svg>