<svg width="20" height="20" viewBox="0 0 20 20" fill="none" xmlns="http://www.w3.org/2000/svg">
<g clip-path="url(#clip0_2382_21661)">
<path d="M12.2749 0L17.2749 5L14.7749 5.45455L12.2749 5L11.8203 2.5L12.2749 0Z" fill="#188038"/>
<path d="M12.274 5V0H4.09215C3.33874 0 2.72852 0.610227 2.72852 1.36364V18.6364C2.72852 19.3898 3.33874 20 4.09215 20H15.9103C16.6637 20 17.274 19.3898 17.274 18.6364V5H12.274Z" fill="#188038"/>
<path d="M5.45508 7.72705V14.318H14.546V7.72705H5.45508ZM9.43235 13.1816H6.59144V11.5907H9.43235V13.1816ZM9.43235 10.4543H6.59144V8.86341H9.43235V10.4543ZM13.4096 13.1816H10.5687V11.5907H13.4096V13.1816ZM13.4096 10.4543H10.5687V8.86341H13.4096V10.4543Z" fill="white"/>
</g>
<defs>
<clipPath id="clip0_2382_21661">
<rect width="14.5455" height="20" fill="white" transform="translate(2.72852)"/>
</clipPath>
</defs>
</svg>