<svg width="30" height="30" viewBox="0 0 30 30" fill="none" xmlns="http://www.w3.org/2000/svg">
<g clip-path="url(#clip0_2600_39052)">
<path d="M8.78169 23.3285H8.51369L7.17969 21.9945V21.7265L9.21769 19.6885H10.6297L10.8177 19.8765V21.2885L8.77969 23.3265L8.78169 23.3285Z" fill="#05BDBA"/>
<path d="M7.17969 8.2436V7.9756L8.51369 6.6416H8.78169L10.8197 8.6796V10.0916L10.6317 10.2796H9.21969L7.18169 8.2416L7.17969 8.2436Z" fill="#05BDBA"/>
<path d="M18.9204 19.0283H16.9804L16.8184 18.8663V14.3243C16.8184 13.5163 16.5004 12.8903 15.5264 12.8683C15.0244 12.8543 14.4504 12.8683 13.8384 12.8923L13.7464 12.9863V18.8643L13.5844 19.0263H11.6444L11.4824 18.8643V11.1063L11.6444 10.9443H16.0104C17.7064 10.9443 19.0824 12.3203 19.0824 14.0163V18.8663L18.9204 19.0283Z" fill="white"/>
<path d="M9.05872 16.1196H1.29872L1.13672 15.9576V14.0136L1.29872 13.8516H9.05872L9.22072 14.0136V15.9576L9.05872 16.1196Z" fill="#05BDBA"/>
<path d="M29.2677 16.1196H21.5077L21.3457 15.9576V14.0136L21.5077 13.8516H29.2677L29.4297 14.0136V15.9576L29.2677 16.1196Z" fill="#05BDBA"/>
<path d="M14.1641 8.52009V2.70009L14.3261 2.53809H16.2701L16.4321 2.70009V8.52009L16.2701 8.68209H14.3261L14.1641 8.52009Z" fill="#05BDBA"/>
<path d="M14.1641 27.272V21.452L14.3261 21.29H16.2701L16.4321 21.452V27.272L16.2701 27.434H14.3261L14.1641 27.272Z" fill="#05BDBA"/>
</g>
<defs>
<clipPath id="clip0_2600_39052">
<rect width="30" height="30" fill="white"/>
</clipPath>
</defs>
</svg>
