<svg width="41" height="40" viewBox="0 0 41 40" fill="none" xmlns="http://www.w3.org/2000/svg">
<g clip-path="url(#clip0_2519_31663)">
<path d="M27.375 18.75C27.375 20.1097 26.9718 21.439 26.2164 22.5695C25.4609 23.7001 24.3872 24.5813 23.131 25.1017C21.8747 25.622 20.4924 25.7582 19.1588 25.4929C17.8251 25.2276 16.6001 24.5728 15.6386 23.6114C14.6772 22.6499 14.0224 21.4249 13.7571 20.0912C13.4918 18.7576 13.628 17.3753 14.1483 16.1191C14.6687 14.8628 15.5499 13.7891 16.6805 13.0336C17.811 12.2782 19.1403 11.875 20.5 11.875C22.3227 11.8771 24.0702 12.6021 25.3591 13.8909C26.6479 15.1798 27.3729 16.9273 27.375 18.75ZM36.75 20C36.75 23.2139 35.797 26.3557 34.0114 29.028C32.2258 31.7003 29.6879 33.7831 26.7186 35.013C23.7493 36.243 20.482 36.5648 17.3298 35.9378C14.1776 35.3107 11.2821 33.7631 9.00952 31.4905C6.73692 29.2179 5.18926 26.3224 4.56225 23.1702C3.93524 20.018 4.25704 16.7507 5.48696 13.7814C6.71689 10.8121 8.79969 8.27419 11.472 6.48862C14.1443 4.70305 17.2861 3.75 20.5 3.75C24.8084 3.75455 28.939 5.46806 31.9855 8.51454C35.0319 11.561 36.7455 15.6916 36.75 20ZM34.25 20C34.248 18.1493 33.8728 16.318 33.1468 14.6156C32.4208 12.9132 31.3589 11.3747 30.0247 10.0921C28.6905 8.80949 27.1113 7.80915 25.3816 7.15088C23.6519 6.4926 21.8072 6.18992 19.9578 6.26094C12.5984 6.54531 6.72969 12.675 6.75001 20.0391C6.75706 23.3914 7.99348 26.6248 10.225 29.1266C11.1338 27.8085 12.2882 26.6779 13.625 25.7969C13.739 25.7216 13.8745 25.6857 14.0108 25.6948C14.1471 25.7038 14.2766 25.7572 14.3797 25.8469C16.0784 27.3162 18.2493 28.1248 20.4953 28.1248C22.7413 28.1248 24.9122 27.3162 26.6109 25.8469C26.714 25.7572 26.8436 25.7038 26.9799 25.6948C27.1162 25.6857 27.2517 25.7216 27.3656 25.7969C28.7041 26.6775 29.8602 27.808 30.7703 29.1266C33.0129 26.6157 34.2517 23.3665 34.25 20Z" fill="#F7F7F8"/>
</g>
<defs>
<clipPath id="clip0_2519_31663">
<rect width="40" height="40" fill="white" transform="translate(0.5)"/>
</clipPath>
</defs>
</svg>