<svg width="36" height="36" viewBox="0 0 36 36" fill="none" xmlns="http://www.w3.org/2000/svg">
<g clip-path="url(#clip0_2357_24156)">
<path d="M17.9992 0.00209808C8.05854 0.00209808 0 8.06063 0 18.0012C0 27.6542 7.59944 35.5324 17.1419 35.9794C17.4267 35.9929 17.7119 36.0005 17.9994 36.0005C22.6077 36.0005 26.8104 34.2677 29.9948 31.4199C27.885 32.8192 25.4183 33.6243 22.7821 33.6243C18.4957 33.6243 14.6569 31.4978 12.075 28.1446C10.0848 25.7952 8.79568 22.3224 8.70787 18.4249V17.5773C8.79563 13.68 10.0847 10.2064 12.0745 7.85766C14.6567 4.50439 18.4955 2.37797 22.7816 2.37797C25.4184 2.37797 27.8855 3.18306 29.9956 4.58319C26.8268 1.74845 22.6495 0.019207 18.0668 0.00218964C18.044 0.00218964 18.0216 0.001297 17.9988 0.001297L17.9992 0.00209808Z" fill="url(#paint0_linear_2357_24156)"/>
<path d="M12.0703 7.85911C13.7221 5.90915 15.8552 4.73329 18.1858 4.73329C23.4259 4.73329 27.673 10.6742 27.673 18.0025C27.673 25.3308 23.4256 31.2717 18.1858 31.2717C15.8552 31.2717 13.7221 30.0963 12.0708 28.1463C14.6525 31.4996 18.491 33.626 22.7778 33.626C25.4142 33.626 27.8809 32.8209 29.9905 31.4216C33.6747 28.1257 35.9945 23.3352 35.9945 18.0026C35.9945 12.6707 33.6751 7.88038 29.9919 4.58483C27.8816 3.1847 25.4144 2.37961 22.7779 2.37961C18.4915 2.37961 14.6521 4.50584 12.0703 7.85911Z" fill="url(#paint1_linear_2357_24156)"/>
</g>
<defs>
<linearGradient id="paint0_linear_2357_24156" x1="14.9982" y1="0.58882" x2="14.9982" y2="35.4772" gradientUnits="userSpaceOnUse">
<stop stop-color="#FF1B2D"/>
<stop offset="0.3" stop-color="#FF1B2D"/>
<stop offset="0.614" stop-color="#FF1B2D"/>
<stop offset="1" stop-color="#A70014"/>
</linearGradient>
<linearGradient id="paint1_linear_2357_24156" x1="24.0321" y1="2.64592" x2="24.0321" y2="33.5028" gradientUnits="userSpaceOnUse">
<stop stop-color="#9C0000"/>
<stop offset="0.7" stop-color="#FF4B4B"/>
<stop offset="1" stop-color="#FF4B4B"/>
</linearGradient>
<clipPath id="clip0_2357_24156">
<rect width="36" height="36" fill="white"/>
</clipPath>
</defs>
</svg>