<svg width="16" height="16" viewBox="0 0 16 16" fill="none" xmlns="http://www.w3.org/2000/svg">
    <path d="M10.794 1.3335H5.20732C2.78065 1.3335 1.33398 2.78016 1.33398 5.20683V10.7868C1.33398 13.2202 2.78065 14.6668 5.20732 14.6668H10.7873C13.214 14.6668 14.6607 13.2202 14.6607 10.7935V5.20683C14.6673 2.78016 13.2207 1.3335 10.794 1.3335ZM8.00065 12.1668C6.80732 12.1668 5.87398 11.5735 5.24065 10.9868V11.4602C5.24065 11.7335 5.01398 11.9602 4.74065 11.9602C4.46732 11.9602 4.24065 11.7335 4.24065 11.4602V9.62683C4.24065 9.3535 4.46732 9.12683 4.74065 9.12683H6.39398C6.66732 9.12683 6.89398 9.3535 6.89398 9.62683C6.89398 9.90016 6.66732 10.1268 6.39398 10.1268H5.79398C6.28732 10.6202 7.05398 11.1668 8.00065 11.1668C9.74732 11.1668 11.1673 9.74683 11.1673 8.00016C11.1673 7.72683 11.394 7.50016 11.6673 7.50016C11.9407 7.50016 12.1673 7.72683 12.1673 8.00016C12.1673 10.3002 10.3007 12.1668 8.00065 12.1668ZM12.1673 6.36016C12.1673 6.38016 12.1673 6.40016 12.1673 6.4135C12.1607 6.48683 12.1407 6.5535 12.1073 6.6135C12.074 6.6735 12.0273 6.72683 11.9673 6.7735C11.9207 6.80683 11.8673 6.8335 11.8073 6.8535C11.7607 6.86683 11.714 6.8735 11.6673 6.8735H10.0473C9.77398 6.8735 9.54732 6.64683 9.54732 6.3735C9.54732 6.10016 9.77398 5.8735 10.0473 5.8735H10.6007C10.0673 5.38016 9.20732 4.8335 8.01398 4.8335C6.26732 4.8335 4.84732 6.2535 4.84732 8.00016C4.84732 8.2735 4.62065 8.50016 4.34732 8.50016C4.07398 8.50016 3.83398 8.2735 3.83398 8.00016C3.83398 5.70016 5.70065 3.8335 8.00065 3.8335C9.43398 3.8335 10.4873 4.4535 11.1673 5.04683V4.54016C11.1673 4.26683 11.394 4.04016 11.6673 4.04016C11.9407 4.04016 12.1673 4.26683 12.1673 4.54016V6.36016Z" fill="#999EA7"/>
</svg>