<svg width="41" height="40" viewBox="0 0 41 40" fill="none" xmlns="http://www.w3.org/2000/svg">
<g clip-path="url(#clip0_2519_31193)">
<path d="M22.5898 10.1069L24.3086 8.38818C24.985 7.71155 25.7881 7.1748 26.672 6.80859C27.556 6.44239 28.5034 6.25391 29.4601 6.25391C30.4169 6.25391 31.3643 6.44239 32.2482 6.80859C33.1321 7.1748 33.9352 7.71155 34.6117 8.38818C35.2883 9.06463 35.8251 9.86774 36.1913 10.7517C36.5575 11.6356 36.746 12.583 36.746 13.5397C36.746 14.4965 36.5575 15.4439 36.1913 16.3278C35.8251 17.2117 35.2883 18.0149 34.6117 18.6913L30.8023 22.5007L29.1867 24.1163C28.5095 24.7936 27.7053 25.3308 26.8203 25.6971C25.9352 26.0633 24.9867 26.2514 24.0288 26.2507C23.071 26.25 22.1227 26.0604 21.2382 25.6928C20.3537 25.3252 19.5504 24.7869 18.8742 24.1085C18.1743 23.4088 17.6247 22.5735 17.2593 21.6537C16.8939 20.734 16.7203 19.7493 16.7492 18.7601" stroke="#F7F7F8" stroke-width="2.2" stroke-linecap="round" stroke-linejoin="round"/>
<path d="M18.4102 29.8937L16.6914 31.6124C16.0142 32.2897 15.2101 32.8269 14.325 33.1932C13.44 33.5594 12.4914 33.7475 11.5336 33.7468C10.5757 33.7461 9.62746 33.5565 8.74297 33.1889C7.85848 32.8213 7.05516 32.283 6.37895 31.6046C5.01643 30.2373 4.25215 28.3852 4.25391 26.455C4.25567 24.5247 5.02332 22.6741 6.38832 21.3093L11.8133 15.8843C12.4898 15.2076 13.2929 14.6709 14.1768 14.3047C15.0607 13.9385 16.0081 13.75 16.9649 13.75C17.9217 13.75 18.8691 13.9385 19.753 14.3047C20.6369 14.6709 21.44 15.2076 22.1164 15.8843C22.8193 16.5839 23.3713 17.4201 23.7384 18.3414C24.1054 19.2626 24.2799 20.2493 24.2508 21.2405" stroke="#F7F7F8" stroke-width="2.2" stroke-linecap="round" stroke-linejoin="round"/>
</g>
<defs>
<clipPath id="clip0_2519_31193">
<rect width="40" height="40" fill="white" transform="translate(0.5)"/>
</clipPath>
</defs>
</svg>