<svg width="32" height="32" viewBox="0 0 32 32" fill="none" xmlns="http://www.w3.org/2000/svg">
<g clip-path="url(#clip0_2372_22843)">
<path d="M28.8195 13.835C29.2764 16.5507 28.8584 19.3413 27.6258 21.804C26.3933 24.2666 24.41 26.2738 21.9623 27.5358C19.5146 28.7978 16.7292 29.2492 14.0082 28.8249C11.2872 28.4006 8.7715 27.1226 6.82423 25.1753C4.87696 23.2281 3.59892 20.7123 3.17464 17.9913C2.75036 15.2704 3.2018 12.4849 4.46377 10.0373C5.72575 7.58958 7.73295 5.60628 10.1956 4.37373C12.6582 3.14118 15.4488 2.72316 18.1645 3.18001C18.4241 3.22592 18.6551 3.37247 18.8072 3.58778C18.9593 3.80309 19.0202 4.06974 18.9767 4.32974C18.9332 4.58974 18.7888 4.82204 18.5749 4.97613C18.361 5.13021 18.0949 5.1936 17.8345 5.15251C16.2572 4.88717 14.641 4.96873 13.0984 5.39152C11.5558 5.81431 10.1238 6.56817 8.90219 7.60064C7.68056 8.63311 6.69858 9.91938 6.02459 11.3699C5.35061 12.8205 5.00081 14.4005 4.99954 16C4.99717 18.6928 5.98686 21.292 7.77954 23.3013C8.50657 22.2468 9.43009 21.3424 10.4995 20.6375C10.5908 20.577 10.6995 20.5481 10.8088 20.5553C10.9181 20.5626 11.022 20.6055 11.1045 20.6775C12.463 21.853 14.1994 22.5 15.9958 22.5C17.7922 22.5 19.5286 21.853 20.887 20.6775C20.9696 20.6055 21.0735 20.5626 21.1828 20.5553C21.2921 20.5481 21.4007 20.577 21.492 20.6375C22.5625 21.3423 23.4873 22.2467 24.2158 23.3013C26.0098 21.2926 27.0009 18.6933 26.9995 16C26.9996 15.3852 26.9486 14.7714 26.847 14.165C26.824 14.0349 26.827 13.9016 26.8559 13.7727C26.8847 13.6437 26.9388 13.5218 27.015 13.4139C27.0912 13.306 27.188 13.2143 27.2999 13.144C27.4118 13.0738 27.5365 13.0264 27.6668 13.0046C27.797 12.9828 27.9304 12.987 28.059 13.017C28.1877 13.0471 28.3091 13.1023 28.4163 13.1795C28.5235 13.2567 28.6143 13.3544 28.6835 13.4669C28.7527 13.5794 28.799 13.7045 28.8195 13.835ZM10.4995 15C10.4995 16.0878 10.8221 17.1512 11.4265 18.0557C12.0308 18.9601 12.8898 19.6651 13.8948 20.0814C14.8998 20.4976 16.0056 20.6066 17.0725 20.3943C18.1394 20.1821 19.1194 19.6583 19.8886 18.8891C20.6578 18.1199 21.1816 17.1399 21.3939 16.073C21.6061 15.0061 21.4972 13.9002 21.0809 12.8953C20.6646 11.8903 19.9597 11.0313 19.0552 10.4269C18.1507 9.82258 17.0873 9.50002 15.9995 9.50002C14.5409 9.50002 13.1419 10.0795 12.1105 11.1109C11.079 12.1424 10.4995 13.5413 10.4995 15ZM29.707 4.29251C29.6142 4.19954 29.5039 4.12578 29.3825 4.07545C29.2611 4.02513 29.131 3.99923 28.9995 3.99923C28.8681 3.99923 28.738 4.02513 28.6166 4.07545C28.4952 4.12578 28.3849 4.19954 28.292 4.29251L24.9995 7.58626L23.707 6.29251C23.6141 6.1996 23.5038 6.1259 23.3824 6.07562C23.261 6.02534 23.1309 5.99946 22.9995 5.99946C22.8681 5.99946 22.738 6.02534 22.6166 6.07562C22.4953 6.1259 22.385 6.1996 22.292 6.29251C22.1991 6.38542 22.1254 6.49573 22.0752 6.61712C22.0249 6.73851 21.999 6.86862 21.999 7.00001C21.999 7.13141 22.0249 7.26152 22.0752 7.38291C22.1254 7.5043 22.1991 7.6146 22.292 7.70751L24.292 9.70752C24.3849 9.80049 24.4952 9.87425 24.6166 9.92457C24.738 9.9749 24.8681 10.0008 24.9995 10.0008C25.131 10.0008 25.2611 9.9749 25.3825 9.92457C25.5039 9.87425 25.6142 9.80049 25.707 9.70752L29.707 5.70751C29.8 5.61464 29.8738 5.50435 29.9241 5.38295C29.9744 5.26156 30.0003 5.13143 30.0003 5.00001C30.0003 4.8686 29.9744 4.73847 29.9241 4.61707C29.8738 4.49568 29.8 4.38539 29.707 4.29251Z" fill="#F7F7F8"/>
</g>
<defs>
<clipPath id="clip0_2372_22843">
<rect width="32" height="32" fill="white"/>
</clipPath>
</defs>
</svg>