<svg width="30" height="30" viewBox="0 0 30 30" fill="none" xmlns="http://www.w3.org/2000/svg">
<g clip-path="url(#clip0_2600_39089)">
<path d="M13.5346 0.0650024C10.5932 0.387268 7.82758 1.52399 5.59516 3.32281C4.8393 3.93219 3.60297 5.20367 3.05805 5.93024C1.50531 8.00446 0.515077 10.3716 0.140077 12.9205C0.0111707 13.7818 -0.0298449 15.4283 0.0521863 16.2896C0.29828 18.8267 1.10687 21.1705 2.42523 23.1685C4.85101 26.8541 8.56 29.2154 12.9194 29.8599C13.7807 29.9888 15.4272 30.0298 16.2885 29.9478C18.8256 29.7017 21.1694 28.8931 23.1674 27.5748C26.853 25.149 29.2143 21.44 29.8588 17.0806C29.9877 16.2193 30.0287 14.5728 29.9467 13.7115C29.6479 10.6412 28.5522 7.92242 26.6772 5.59625C26.0678 4.84039 24.7963 3.60406 24.0698 3.05914C21.9955 1.50641 19.6459 0.527893 17.0795 0.141174C16.3705 0.0357056 14.226 -0.0111694 13.5346 0.0650024ZM18.8608 13.8228C20.894 17.3795 22.558 20.2974 22.558 20.3091C22.558 20.3209 19.2241 20.3326 15.1459 20.3326C11.0678 20.3326 7.73383 20.3209 7.73383 20.3033C7.73383 20.2564 15.1342 7.31891 15.1518 7.34235C15.1577 7.34821 16.8334 10.2662 18.8608 13.8228Z" fill="white"/>
</g>
<defs>
<clipPath id="clip0_2600_39089">
<rect width="30" height="30" fill="white"/>
</clipPath>
</defs>
</svg>
