<svg width="24" height="24" viewBox="0 0 24 24" fill="none" xmlns="http://www.w3.org/2000/svg">
<path d="M16.189 2H7.80902C4.16902 2 1.99902 4.17 1.99902 7.81V16.18C1.99902 19.83 4.16902 22 7.80902 22H16.179C19.819 22 21.989 19.83 21.989 16.19V7.81C21.999 4.17 19.829 2 16.189 2ZM13.919 16.13H8.99902C8.58902 16.13 8.24902 15.79 8.24902 15.38C8.24902 14.97 8.58902 14.63 8.99902 14.63H13.919C15.199 14.63 16.249 13.59 16.249 12.3C16.249 11.01 15.209 9.97 13.919 9.97H8.84902L9.10902 10.23C9.39902 10.53 9.39902 11 9.09902 11.3C8.94902 11.45 8.75902 11.52 8.56902 11.52C8.37902 11.52 8.18902 11.45 8.03902 11.3L6.46902 9.72C6.17902 9.43 6.17902 8.95 6.46902 8.66L8.03902 7.09C8.32902 6.8 8.80902 6.8 9.09902 7.09C9.38902 7.38 9.38902 7.86 9.09902 8.15L8.76902 8.48H13.919C16.029 8.48 17.749 10.2 17.749 12.31C17.749 14.42 16.029 16.13 13.919 16.13Z" fill="#F7F7F8"/>
</svg>
