<svg width="24" height="24" viewBox="0 0 24 24" fill="none" xmlns="http://www.w3.org/2000/svg">
<path fill-rule="evenodd" clip-rule="evenodd" d="M16.188 1.99951H7.80805C4.16805 1.99951 1.99805 4.16951 1.99805 7.80951V16.1795C1.99805 19.8295 4.16805 21.9995 7.80805 21.9995H16.178C19.818 21.9995 21.988 19.8295 21.988 16.1895V7.80951C21.998 4.16951 19.828 1.99951 16.188 1.99951ZM18.0016 7.99923C18.0014 7.62514 17.8964 7.25861 17.6983 6.94124C17.5003 6.62388 17.2172 6.36841 16.8813 6.20385C16.5453 6.03929 16.1699 5.97222 15.7978 6.01028C15.4256 6.04834 15.0716 6.18999 14.7759 6.41914C14.4803 6.6483 14.2548 6.95578 14.1251 7.30666C13.9953 7.65754 13.9666 8.03776 14.0422 8.40414C14.1177 8.77052 14.2945 9.10838 14.5524 9.37935C14.8103 9.65032 15.139 9.84353 15.5012 9.93706V10.9997C15.5012 11.1324 15.4485 11.2596 15.3547 11.3533C15.261 11.4471 15.1338 11.4998 15.0011 11.4998H9.00012C8.86749 11.4998 8.74029 11.4471 8.64651 11.3533C8.55272 11.2596 8.50003 11.1324 8.50003 10.9997V9.93706C8.97144 9.81534 9.38228 9.52587 9.65553 9.12292C9.92878 8.71996 10.0457 8.23118 9.98434 7.74819C9.923 7.2652 9.6876 6.82117 9.32229 6.49932C8.95697 6.17747 8.48682 5.9999 7.99995 5.9999C7.51308 5.9999 7.04293 6.17747 6.67761 6.49932C6.3123 6.82117 6.07691 7.2652 6.01556 7.74819C5.95421 8.23118 6.07112 8.71996 6.34437 9.12292C6.61762 9.52587 7.02846 9.81534 7.49987 9.93706V10.9997C7.49987 11.3976 7.65793 11.7792 7.93928 12.0606C8.22063 12.3419 8.60223 12.5 9.00012 12.5H11.5005V14.0627C11.0291 14.1845 10.6183 14.4739 10.345 14.8769C10.0718 15.2798 9.95488 15.7686 10.0162 16.2516C10.0776 16.7346 10.313 17.1786 10.6783 17.5005C11.0436 17.8223 11.5138 17.9999 12.0006 17.9999C12.4875 17.9999 12.9576 17.8223 13.323 17.5005C13.6883 17.1786 13.9237 16.7346 13.985 16.2516C14.0464 15.7686 13.9295 15.2798 13.6562 14.8769C13.3829 14.4739 12.9721 14.1845 12.5007 14.0627V12.5H15.0011C15.399 12.5 15.7806 12.3419 16.062 12.0606C16.3433 11.7792 16.5014 11.3976 16.5014 10.9997V9.93706C16.9306 9.82556 17.3107 9.57485 17.5822 9.22418C17.8537 8.87352 18.0012 8.44271 18.0016 7.99923Z" fill="#F7F7F8"/>
</svg>
