<svg width="24" height="24" viewBox="0 0 24 24" fill="none" xmlns="http://www.w3.org/2000/svg">
<path d="M16.191 2H7.81098C4.17098 2 2.00098 4.17 2.00098 7.81V16.18C2.00098 19.83 4.17098 22 7.81098 22H16.181C19.821 22 21.991 19.83 21.991 16.19V7.81C22.001 4.17 19.831 2 16.191 2ZM9.94098 13.27C9.26098 14.29 8.32098 15.12 7.22098 15.67C7.12098 15.72 7.00098 15.75 6.89098 15.75C6.61098 15.75 6.35098 15.6 6.22098 15.34C6.03098 14.97 6.18098 14.52 6.56098 14.33C7.43098 13.9 8.17098 13.24 8.70098 12.44C8.88098 12.17 8.88098 11.83 8.70098 11.56C8.16098 10.76 7.42098 10.1 6.56098 9.67C6.18098 9.49 6.03098 9.04 6.22098 8.66C6.40098 8.29 6.85098 8.14 7.22098 8.33C8.32098 8.88 9.26098 9.71 9.94098 10.73C10.461 11.5 10.461 12.5 9.94098 13.27ZM17.001 15.75H13.001C12.591 15.75 12.251 15.41 12.251 15C12.251 14.59 12.591 14.25 13.001 14.25H17.001C17.411 14.25 17.751 14.59 17.751 15C17.751 15.41 17.411 15.75 17.001 15.75Z" fill="#F7F7F8"/>
</svg>
