<svg width="24" height="24" viewBox="0 0 24 24" fill="none" xmlns="http://www.w3.org/2000/svg">
<path d="M19.0759 4.92362C15.1771 1.02481 8.82293 1.02481 4.92411 4.92362C1.0253 8.82244 1.0253 15.1766 4.92411 19.0754C8.82293 22.9742 15.1771 22.9742 19.0759 19.0754C22.9747 15.1766 22.9747 8.82244 19.0759 4.92362ZM14.2997 15.3606L12 13.0609L9.70034 15.3606C9.41022 15.6507 8.92906 15.6507 8.63895 15.3606C8.34884 15.0704 8.34884 14.5893 8.63895 14.2992L10.9386 11.9995L8.63895 9.69985C8.34884 9.40974 8.34884 8.92858 8.63895 8.63846C8.92906 8.34835 9.41022 8.34835 9.70034 8.63846L12 10.9381L14.2997 8.63846C14.5898 8.34835 15.0709 8.34835 15.361 8.63846C15.6512 8.92858 15.6512 9.40974 15.361 9.69985L13.0614 11.9995L15.361 14.2992C15.6512 14.5893 15.6512 15.0704 15.361 15.3606C15.0709 15.6507 14.5898 15.6507 14.2997 15.3606Z" fill="#F7F7F8"/>
</svg>
