<svg width="24" height="24" viewBox="0 0 24 24" fill="none" xmlns="http://www.w3.org/2000/svg">
<path d="M15.7774 3H8.23161C4.95397 3 3 4.953 3 8.229V15.762C3 19.047 4.95397 21 8.23161 21H15.7684C19.046 21 21 19.047 21 15.771V8.229C21.009 4.953 19.055 3 15.7774 3ZM15.6603 11.253L12.4817 14.43C12.3467 14.565 12.1756 14.628 12.0045 14.628C11.8334 14.628 11.6623 14.565 11.5272 14.43L8.34867 11.253C8.08753 10.992 8.08753 10.56 8.34867 10.299C8.6098 10.038 9.04201 10.038 9.30314 10.299L12.0045 12.999L14.7058 10.299C14.967 10.038 15.3992 10.038 15.6603 10.299C15.9214 10.56 15.9214 10.983 15.6603 11.253Z" fill="#F7F7F8"/>
</svg>
