<svg width="24" height="24" viewBox="0 0 24 24" fill="none" xmlns="http://www.w3.org/2000/svg">
<path d="M20.501 10.1895H17.611C15.241 10.1895 13.311 8.25951 13.311 5.88951V2.99951C13.311 2.44951 12.861 1.99951 12.311 1.99951H8.07098C4.99098 1.99951 2.50098 3.99951 2.50098 7.56951V16.4295C2.50098 19.9995 4.99098 21.9995 8.07098 21.9995H15.931C19.011 21.9995 21.501 19.9995 21.501 16.4295V11.1895C21.501 10.6395 21.051 10.1895 20.501 10.1895Z" fill="#F7F7F8"/>
<path d="M15.7987 2.2095C15.3887 1.7995 14.6787 2.0795 14.6787 2.6495V6.1395C14.6787 7.5995 15.9187 8.8095 17.4287 8.8095C18.3787 8.81951 19.6987 8.8195 20.8287 8.8195C21.3987 8.8195 21.6987 8.1495 21.2987 7.7495C19.8587 6.2995 17.2787 3.6895 15.7987 2.2095Z" fill="#F7F7F8"/>
</svg>
