<svg width="24" height="24" viewBox="0 0 24 24" fill="none" xmlns="http://www.w3.org/2000/svg">
<path d="M19.9424 4.06562C17.7504 1.87365 15.6037 1.81716 13.3552 4.06562L11.988 5.43277C11.8751 5.54576 11.8299 5.72654 11.8751 5.88472C12.7338 8.8789 15.1291 11.2742 18.1233 12.133C18.1685 12.1443 18.2137 12.1556 18.2589 12.1556C18.3832 12.1556 18.4961 12.1104 18.5865 12.02L19.9424 10.6528C21.061 9.54553 21.6033 8.47215 21.6033 7.38746C21.6146 6.26888 21.0723 5.1842 19.9424 4.06562Z" fill="#F7F7F8"/>
<path d="M16.0892 13.1602C15.7616 13.002 15.4452 12.8438 15.1401 12.663C14.8916 12.5162 14.6543 12.358 14.417 12.1885C14.2249 12.0642 13.999 11.8834 13.7843 11.7027C13.7617 11.6914 13.6826 11.6236 13.5922 11.5332C13.2193 11.2168 12.8013 10.81 12.4284 10.3581C12.3945 10.3355 12.338 10.2564 12.2589 10.1547C12.146 10.0191 11.9539 9.79315 11.7844 9.53328C11.6488 9.3638 11.4906 9.11523 11.3437 8.86665C11.163 8.56159 11.0048 8.25652 10.8466 7.94015C10.8227 7.88886 10.7995 7.83783 10.777 7.78709C10.6103 7.41049 10.1192 7.30038 9.82797 7.59162L3.35549 14.0641C3.20861 14.211 3.07302 14.4935 3.03913 14.6855L2.42899 19.013C2.316 19.7813 2.53068 20.5044 3.00523 20.9903C3.41199 21.3857 3.97693 21.6004 4.58706 21.6004C4.72265 21.6004 4.85823 21.5891 4.99382 21.5665L9.33255 20.9564C9.53593 20.9225 9.8184 20.7869 9.95399 20.64L16.4184 14.1756C16.7116 13.8823 16.601 13.379 16.2196 13.2162C16.1766 13.1979 16.1332 13.1793 16.0892 13.1602Z" fill="#F7F7F8"/>
</svg>
