<svg width="24" height="24" viewBox="0 0 24 24" fill="none" xmlns="http://www.w3.org/2000/svg">
<path d="M21.015 7.99126C21.4128 8.55784 20.9386 9.24951 20.2463 9.24951H2.99805C2.44576 9.24951 1.99805 8.8018 1.99805 8.24951V6.41951C1.99805 3.97951 3.97805 1.99951 6.41805 1.99951H8.73805C10.368 1.99951 10.878 2.52951 11.528 3.39951L12.928 5.25951C13.238 5.66951 13.278 5.71951 13.858 5.71951H16.648C18.4526 5.71951 20.0497 6.6166 21.015 7.99126Z" fill="#F7F7F8"/>
<path d="M20.9814 10.75C21.5324 10.75 21.9796 11.1957 21.9814 11.7466L21.998 16.6503C21.998 19.6003 19.598 22.0003 16.648 22.0003H7.34805C4.39805 22.0003 1.99805 19.6003 1.99805 16.6503V11.7503C1.99805 11.198 2.44575 10.7503 2.99803 10.7503L20.9814 10.75Z" fill="#F7F7F8"/>
</svg>
