<svg width="24" height="24" viewBox="0 0 24 24" fill="none" xmlns="http://www.w3.org/2000/svg">
<path fill-rule="evenodd" clip-rule="evenodd" d="M5.99902 1.00049C3.2376 1.00049 0.999023 3.23907 0.999023 6.00049C0.999023 8.76191 3.2376 11.0005 5.99902 11.0005C8.76044 11.0005 10.999 8.76191 10.999 6.00049C10.999 3.23907 8.76044 1.00049 5.99902 1.00049ZM17.999 1.00049C15.2376 1.00049 12.999 3.23907 12.999 6.00049C12.999 8.76191 15.2376 11.0005 17.999 11.0005C20.7604 11.0005 22.999 8.76191 22.999 6.00049C22.999 3.23907 20.7604 1.00049 17.999 1.00049ZM5.99902 13.0005C3.2376 13.0005 0.999023 15.2391 0.999023 18.0005C0.999023 20.7619 3.2376 23.0005 5.99902 23.0005C8.76044 23.0005 10.999 20.7619 10.999 18.0005C10.999 15.2391 8.76044 13.0005 5.99902 13.0005ZM17.999 13.0005C15.2376 13.0005 12.999 15.2391 12.999 18.0005C12.999 20.7619 15.2376 23.0005 17.999 23.0005C20.7604 23.0005 22.999 20.7619 22.999 18.0005C22.999 15.2391 20.7604 13.0005 17.999 13.0005Z" fill="#F7F7F8"/>
</svg>
