<svg width="24" height="24" viewBox="0 0 24 24" fill="none" xmlns="http://www.w3.org/2000/svg">
<path fill-rule="evenodd" clip-rule="evenodd" d="M9.91697 3.64939L9.06641 2.7334L8.15042 3.58396L1.15042 10.084L2.85154 11.9159L8.93555 6.26651L14.585 12.3505L15.4677 13.3011L16.3849 12.3838L20.3849 8.38384L22.001 9.99995L23.001 8.99995V3.99995H18.001L17.001 4.99995L18.6171 6.61607L15.5343 9.69884L9.91697 3.64939ZM5.00098 23V14.5H1.00098V23H5.00098ZM7.00098 23V9.99995H11.001V23H7.00098ZM13.001 16V23H17.001V16H13.001ZM19.001 23V12.5H23.001V23H19.001Z" fill="#F7F7F8"/>
</svg>
