<svg width="24" height="24" viewBox="0 0 24 24" fill="none" xmlns="http://www.w3.org/2000/svg">
<path d="M18.75 7.99951V10.0995C18.31 10.0395 17.81 10.0095 17.25 9.99951V7.99951C17.25 4.84951 16.36 2.74951 12 2.74951C7.64 2.74951 6.75 4.84951 6.75 7.99951V9.99951C6.19 10.0095 5.69 10.0395 5.25 10.0995V7.99951C5.25 5.09951 5.95 1.24951 12 1.24951C18.05 1.24951 18.75 5.09951 18.75 7.99951Z" fill="#F7F7F8"/>
<path d="M17.248 10.0005C17.808 10.0105 18.308 10.0405 18.748 10.1005C21.298 10.4105 21.998 11.6605 21.998 15.0005V17.0005C21.998 21.0005 20.998 22.0005 16.998 22.0005H6.99805C2.99805 22.0005 1.99805 21.0005 1.99805 17.0005V15.0005C1.99805 11.6605 2.69805 10.4105 5.24805 10.1005C5.68805 10.0405 6.18805 10.0105 6.74805 10.0005H17.248Z" fill="#F7F7F8"/>
</svg>
