<svg width="24" height="24" viewBox="0 0 24 24" fill="none" xmlns="http://www.w3.org/2000/svg">
<path fill-rule="evenodd" clip-rule="evenodd" d="M11.6351 6.71305C11.5396 6.71317 11.4465 6.6832 11.369 6.62739C11.2915 6.57158 11.2335 6.49278 11.2033 6.40216L10.9643 5.68491C10.9196 5.55115 10.8445 5.42961 10.7447 5.32989C10.645 5.23018 10.5235 5.15503 10.3897 5.11039L9.67248 4.87131C9.58188 4.84121 9.50305 4.78334 9.44719 4.70591C9.39132 4.62849 9.36126 4.53544 9.36126 4.43996C9.36126 4.34449 9.39132 4.25144 9.44719 4.17401C9.50305 4.09658 9.58188 4.03872 9.67248 4.00862L10.3897 3.76953C10.5235 3.72489 10.645 3.64974 10.7447 3.55003C10.8445 3.45032 10.9196 3.32877 10.9643 3.19501L11.2042 2.47686C11.2345 2.38658 11.2924 2.3081 11.3698 2.2525C11.4471 2.1969 11.5399 2.16699 11.6351 2.16699C11.7304 2.16699 11.8232 2.1969 11.9005 2.2525C11.9778 2.3081 12.0357 2.38658 12.066 2.47686L12.306 3.19501C12.3507 3.32877 12.4258 3.45032 12.5255 3.55003C12.6252 3.64974 12.7468 3.72489 12.8805 3.76953L13.5978 4.00862C13.6884 4.03872 13.7672 4.09658 13.8231 4.17401C13.8789 4.25144 13.909 4.34449 13.909 4.43996C13.909 4.53544 13.8789 4.62849 13.8231 4.70591C13.7672 4.78334 13.6884 4.84121 13.5978 4.87131L12.8805 5.11039C12.7468 5.15503 12.6252 5.23018 12.5255 5.32989C12.4258 5.42961 12.3507 5.55115 12.306 5.68491L12.066 6.40216C12.0359 6.49263 11.9781 6.57133 11.9007 6.62713C11.8234 6.68292 11.7305 6.71298 11.6351 6.71305ZM6.63533 13.0764C6.50015 13.0764 6.36884 13.0313 6.26228 12.9481C6.15572 12.8649 6.08 12.7485 6.04717 12.6174L5.83809 11.781C5.74468 11.4084 5.55198 11.068 5.28048 10.7962C5.00899 10.5244 4.66887 10.3313 4.29633 10.2375L3.46 10.0284C3.32869 9.99589 3.21205 9.92035 3.12867 9.81383C3.0453 9.70731 3 9.57594 3 9.44067C3 9.30541 3.0453 9.17403 3.12867 9.06751C3.21205 8.96099 3.32869 8.88546 3.46 8.85297L4.29633 8.64389C4.66892 8.55026 5.00916 8.35735 5.28081 8.0857C5.55246 7.81405 5.74537 7.47381 5.839 7.10122L6.04808 6.26489C6.08126 6.13418 6.15706 6.01827 6.26349 5.93547C6.36993 5.85267 6.50093 5.80772 6.63578 5.80772C6.77063 5.80772 6.90164 5.85267 7.00807 5.93547C7.11451 6.01827 7.19031 6.13418 7.22349 6.26489L7.43257 7.10122C7.52576 7.47388 7.71841 7.81423 7.98995 8.08593C8.26149 8.35763 8.60173 8.55048 8.97433 8.64389L9.81066 8.85297C9.94239 8.88513 10.0595 8.96057 10.1432 9.06722C10.227 9.17386 10.2725 9.30553 10.2725 9.44113C10.2725 9.57672 10.227 9.70839 10.1432 9.81504C10.0595 9.92168 9.94239 9.99713 9.81066 10.0293L8.97433 10.2375C8.60152 10.3306 8.26104 10.5234 7.98932 10.7951C7.71759 11.0668 7.52483 11.4073 7.43166 11.7801L7.22258 12.6174C7.18978 12.7484 7.11421 12.8646 7.00783 12.9478C6.90145 13.031 6.77036 13.0762 6.63533 13.0764ZM13.4532 22.167C13.3053 22.1668 13.1614 22.1184 13.0433 22.0292C12.9252 21.94 12.8394 21.8148 12.7987 21.6725L12.0597 19.0853C11.9005 18.5281 11.602 18.0207 11.1923 17.611C10.7825 17.2012 10.2751 16.9027 9.71794 16.7436L7.13076 16.0045C6.98841 15.9637 6.8632 15.8777 6.77407 15.7595C6.68494 15.6412 6.63673 15.4972 6.63673 15.3491C6.63673 15.201 6.68494 15.0569 6.77407 14.9387C6.8632 14.8204 6.98841 14.7344 7.13076 14.6937L9.71794 13.9546C10.2749 13.7953 10.7822 13.4967 11.1917 13.087C11.6013 12.6773 11.8997 12.1699 12.0588 11.6129L12.7987 9.02569C12.8395 8.88334 12.9255 8.75813 13.0438 8.669C13.162 8.57987 13.3061 8.53166 13.4542 8.53166C13.6022 8.53166 13.7463 8.57987 13.8645 8.669C13.9828 8.75813 14.0688 8.88334 14.1096 9.02569L14.8486 11.6129C15.0077 12.1699 15.3061 12.6773 15.7157 13.087C16.1252 13.4967 16.6325 13.7953 17.1895 13.9546L19.7766 14.6937C19.919 14.7344 20.0442 14.8204 20.1333 14.9387C20.2225 15.0569 20.2707 15.201 20.2707 15.3491C20.2707 15.4972 20.2225 15.6412 20.1333 15.7595C20.0442 15.8777 19.919 15.9637 19.7766 16.0045L17.1895 16.7436C16.6324 16.9028 16.1251 17.2013 15.7156 17.6111C15.306 18.0208 15.0076 18.5282 14.8486 19.0853L14.1096 21.6725C14.0688 21.8151 13.9827 21.9405 13.8643 22.0297C13.7459 22.119 13.6015 22.1672 13.4532 22.167Z" fill="#F7F7F8"/>
</svg>
