<svg width="20" height="20" viewBox="0 0 20 20" fill="none" xmlns="http://www.w3.org/2000/svg">
  <path d="M1.66602 6.50807V13.4914C1.66602 14.7331 1.96602 15.7664 2.54102 16.5581C2.78268 16.9081 3.09102 17.2164 3.44102 17.4581C4.12435 17.9581 4.99102 18.2497 6.01602 18.3164V1.69141C3.28268 1.86641 1.66602 3.64141 1.66602 6.50807Z" fill="#B6B9C0"/>
  <path fill-rule="evenodd" clip-rule="evenodd" d="M16.5583 2.54102C16.9083 2.78268 17.2166 3.09102 17.4583 3.44102C18.0333 4.23268 18.3333 5.26602 18.3333 6.50768V13.491C18.3333 16.5243 16.5249 18.3327 13.4916 18.3327H8.2666V1.66602H13.4916C14.7333 1.66602 15.7666 1.96602 16.5583 2.54102Z" fill="#B6B9C0"/>
</svg>
