<svg width="24" height="24" viewBox="0 0 24 24" fill="none" xmlns="http://www.w3.org/2000/svg">
<path d="M15.3495 3.9782L6.73994 6.83851C0.952573 8.77399 0.952573 11.9299 6.73994 13.8558L9.29515 14.7044L10.1437 17.2596C12.0696 23.0469 15.2351 23.0469 17.161 17.2596L20.0308 8.65957C21.3085 4.79815 19.2109 2.69106 15.3495 3.9782ZM15.6546 9.10769L12.0315 12.7498C11.8885 12.8928 11.7073 12.9596 11.5262 12.9596C11.345 12.9596 11.1639 12.8928 11.0209 12.7498C10.7444 12.4733 10.7444 12.0157 11.0209 11.7392L14.6439 8.09705C14.9204 7.82055 15.3781 7.82055 15.6546 8.09705C15.9311 8.37354 15.9311 8.83119 15.6546 9.10769Z" fill="#000000"/>
</svg>
