<svg width="24" height="24" viewBox="0 0 24 24" fill="none" xmlns="http://www.w3.org/2000/svg">
<path d="M12 2C9.38 2 7.25 4.13 7.25 6.75C7.25 9.32 9.26 11.4 11.88 11.49C11.96 11.48 12.04 11.48 12.1 11.49C12.12 11.49 12.13 11.49 12.15 11.49C12.16 11.49 12.16 11.49 12.17 11.49C14.73 11.4 16.74 9.32 16.75 6.75C16.75 4.13 14.62 2 12 2Z" fill="#F7F7F8"/>
<path d="M18.0809 14.1499C15.2909 12.2899 8.74094 12.2899 5.93094 14.1499C4.66094 14.9999 3.96094 16.1499 3.96094 17.3799C3.96094 18.6099 4.66094 19.7499 5.92094 20.5899C7.32094 21.5299 10.1609 21.9999 12.0009 21.9999C13.8409 21.9999 16.6809 21.5299 18.0809 20.5899C19.3409 19.7399 20.0409 18.5999 20.0409 17.3599C20.0309 16.1299 19.3409 14.9899 18.0809 14.1499Z" fill="#F7F7F8"/>
</svg>
