<?xml version="1.0" encoding="utf-8"?>
<svg xmlns="http://www.w3.org/2000/svg" viewBox="216.267 148.879 38.767 22.056" width="38.767px" height="22.056px">
  <path d="M 224.403 170.935 C 223.027 170.935 221.971 170.823 221.235 170.599 C 220.499 170.375 219.987 170.023 219.699 169.543 C 219.411 169.063 219.267 168.439 219.267 167.671 L 219.267 163.975 C 219.267 163.223 219.011 162.687 218.499 162.367 C 217.987 162.047 217.243 161.887 216.267 161.887 L 216.267 159.079 C 217.243 159.079 217.987 158.919 218.499 158.599 C 219.011 158.279 219.267 157.743 219.267 156.991 L 219.267 153.271 C 219.267 152.503 219.411 151.879 219.699 151.399 C 219.987 150.919 220.499 150.567 221.235 150.343 C 221.971 150.119 223.027 150.007 224.403 150.007 L 224.403 152.647 C 223.779 152.663 223.283 152.775 222.915 152.983 C 222.547 153.191 222.363 153.631 222.363 154.303 L 222.363 157.807 C 222.363 159.263 221.451 160.127 219.627 160.399 L 219.627 160.543 C 221.451 160.815 222.363 161.679 222.363 163.135 L 222.363 166.639 C 222.363 167.311 222.547 167.751 222.915 167.959 C 223.283 168.167 223.779 168.279 224.403 168.295 L 224.403 170.935 Z M 229.865 167.455 C 227.609 167.455 225.593 166.351 225.593 163.663 C 225.593 160.711 227.993 159.559 232.337 159.559 L 233.417 159.559 L 233.417 159.343 C 233.417 158.287 233.225 157.519 231.953 157.519 C 230.873 157.519 230.537 158.215 230.465 158.863 L 226.049 158.863 C 226.241 155.791 228.641 154.231 232.241 154.231 C 235.889 154.231 238.097 155.719 238.097 159.031 L 238.097 167.143 L 233.537 167.143 L 233.537 165.703 C 233.009 166.567 231.905 167.455 229.865 167.455 Z M 231.569 164.287 C 232.649 164.287 233.417 163.687 233.417 162.751 L 233.417 162.103 L 232.409 162.103 C 230.825 162.103 230.249 162.415 230.249 163.303 C 230.249 163.903 230.705 164.287 231.569 164.287 Z M 242.536 153.655 C 241.072 153.655 239.968 152.647 239.968 151.279 C 239.968 149.887 241.072 148.879 242.536 148.879 C 243.976 148.879 245.08 149.887 245.08 151.279 C 245.08 152.647 243.976 153.655 242.536 153.655 Z M 240.184 167.143 L 240.184 154.591 L 244.888 154.591 L 244.888 167.143 L 240.184 167.143 Z M 246.897 170.935 L 246.897 168.295 C 247.521 168.279 248.017 168.167 248.385 167.959 C 248.753 167.751 248.937 167.311 248.937 166.639 L 248.937 163.135 C 248.937 161.679 249.849 160.815 251.674 160.543 L 251.674 160.399 C 249.849 160.127 248.937 159.263 248.937 157.807 L 248.937 154.303 C 248.937 153.631 248.753 153.191 248.385 152.983 C 248.017 152.775 247.521 152.663 246.897 152.647 L 246.897 150.007 C 248.273 150.007 249.329 150.119 250.065 150.343 C 250.802 150.567 251.314 150.919 251.602 151.399 C 251.89 151.879 252.034 152.503 252.034 153.271 L 252.034 156.991 C 252.034 157.743 252.29 158.279 252.802 158.599 C 253.314 158.919 254.058 159.079 255.034 159.079 L 255.034 161.887 C 254.058 161.887 253.314 162.047 252.802 162.367 C 252.29 162.687 252.034 163.223 252.034 163.975 L 252.034 167.671 C 252.034 168.439 251.89 169.063 251.602 169.543 C 251.314 170.023 250.802 170.375 250.065 170.599 C 249.329 170.823 248.273 170.935 246.897 170.935 Z" fill="#3BCEFF" style="stroke-width: 1;" transform="matrix(0.9999999999999999, 0, 0, 0.9999999999999999, 0, 0)"/>
</svg>
