<svg width="16" height="16" viewBox="0 0 16 16" fill="none" xmlns="http://www.w3.org/2000/svg">
<g clip-path="url(#clip0_93_906)">
<path fill-rule="evenodd" clip-rule="evenodd" d="M8.00024 -6.10352e-05C3.58024 -6.10352e-05 0.000244141 3.57994 0.000244141 7.99994C0.000244141 11.5399 2.29024 14.5299 5.47024 15.5899C5.87024 15.6599 6.02024 15.4199 6.02024 15.2099C6.02024 15.0199 6.01024 14.3899 6.01024 13.7199C4.00024 14.0899 3.48024 13.2299 3.32024 12.7799C3.23024 12.5499 2.84024 11.8399 2.50024 11.6499C2.22024 11.4999 1.82024 11.1299 2.49024 11.1199C3.12024 11.1099 3.57024 11.6999 3.72024 11.9399C4.44024 13.1499 5.59024 12.8099 6.05024 12.5999C6.12024 12.0799 6.33024 11.7299 6.56024 11.5299C4.78024 11.3299 2.92024 10.6399 2.92024 7.57994C2.92024 6.70994 3.23024 5.98994 3.74024 5.42994C3.66024 5.22994 3.38024 4.40994 3.82024 3.30994C3.82024 3.30994 4.49024 3.09994 6.02024 4.12994C6.66024 3.94994 7.34024 3.85994 8.02024 3.85994C8.70024 3.85994 9.38024 3.94994 10.0202 4.12994C11.5502 3.08994 12.2202 3.30994 12.2202 3.30994C12.6602 4.40994 12.3802 5.22994 12.3002 5.42994C12.8102 5.98994 13.1202 6.69994 13.1202 7.57994C13.1202 10.6499 11.2502 11.3299 9.47024 11.5299C9.76024 11.7799 10.0102 12.2599 10.0102 13.0099C10.0102 14.0799 10.0002 14.9399 10.0002 15.2099C10.0002 15.4199 10.1502 15.6699 10.5502 15.5899C13.7102 14.5299 16.0002 11.5299 16.0002 7.99994C16.0002 3.57994 12.4202 -6.10352e-05 8.00024 -6.10352e-05Z" fill="#F7F7F8"/>
</g>
<defs>
<clipPath id="clip0_93_906">
<rect width="16" height="16" fill="white"/>
</clipPath>
</defs>
</svg>
