<svg width="16" height="16" viewBox="0 0 16 16" fill="none" xmlns="http://www.w3.org/2000/svg">
<g clip-path="url(#clip0_2369_39799)">
<path d="M9.81774 0L13.8177 4L11.8177 4.36364L9.81774 4L9.4541 2L9.81774 0Z" fill="#188038"/>
<path d="M9.818 4V0H3.27255C2.66982 0 2.18164 0.488182 2.18164 1.09091V14.9091C2.18164 15.5118 2.66982 16 3.27255 16H12.7271C13.3298 16 13.818 15.5118 13.818 14.9091V4H9.818Z" fill="#34A853"/>
<path d="M4.36328 6.18188V11.4546H11.636V6.18188H4.36328ZM7.5451 10.5455H5.27237V9.27279H7.5451V10.5455ZM7.5451 8.3637H5.27237V7.09098H7.5451V8.3637ZM10.7269 10.5455H8.45419V9.27279H10.7269V10.5455ZM10.7269 8.3637H8.45419V7.09098H10.7269V8.3637Z" fill="white"/>
</g>
<defs>
<clipPath id="clip0_2369_39799">
<rect width="11.6364" height="16" fill="white" transform="translate(2.18164)"/>
</clipPath>
</defs>
</svg>
