<svg width="16" height="16" viewBox="0 0 16 16" fill="none" xmlns="http://www.w3.org/2000/svg">
<g clip-path="url(#clip0_93_903)">
<mask id="mask0_93_903" style="mask-type:luminance" maskUnits="userSpaceOnUse" x="2" y="0" width="12" height="16">
<path d="M9.42999 0H3.28383C2.6873 0 2.19922 0.490909 2.19922 1.09091V14.9091C2.19922 15.5091 2.6873 16 3.28383 16H12.6838C13.2804 16 13.7684 15.5091 13.7684 14.9091V4.36364L9.42999 0Z" fill="white"/>
</mask>
<g mask="url(#mask0_93_903)">
<path d="M9.42999 0H3.28383C2.6873 0 2.19922 0.490909 2.19922 1.09091V14.9091C2.19922 15.5091 2.6873 16 3.28383 16H12.6838C13.2804 16 13.7684 15.5091 13.7684 14.9091V4.36364L11.2377 2.54545L9.42999 0Z" fill="#4285F4"/>
</g>
<mask id="mask1_93_903" style="mask-type:luminance" maskUnits="userSpaceOnUse" x="2" y="0" width="12" height="16">
<path d="M9.42999 0H3.28383C2.6873 0 2.19922 0.490909 2.19922 1.09091V14.9091C2.19922 15.5091 2.6873 16 3.28383 16H12.6838C13.2804 16 13.7684 15.5091 13.7684 14.9091V4.36364L9.42999 0Z" fill="white"/>
</mask>
<g mask="url(#mask1_93_903)">
<path d="M9.74805 4.04443L13.7693 8.08807V4.36352L9.74805 4.04443Z" fill="url(#paint0_linear_93_903)"/>
</g>
<mask id="mask2_93_903" style="mask-type:luminance" maskUnits="userSpaceOnUse" x="2" y="0" width="12" height="16">
<path d="M9.42999 0H3.28383C2.6873 0 2.19922 0.490909 2.19922 1.09091V14.9091C2.19922 15.5091 2.6873 16 3.28383 16H12.6838C13.2804 16 13.7684 15.5091 13.7684 14.9091V4.36364L9.42999 0Z" fill="white"/>
</mask>
<g mask="url(#mask2_93_903)">
<path d="M5.0918 11.6364H10.8764V10.9091H5.0918V11.6364ZM5.0918 13.0909H9.43026V12.3636H5.0918V13.0909ZM5.0918 8V8.72727H10.8764V8H5.0918ZM5.0918 10.1818H10.8764V9.45455H5.0918V10.1818Z" fill="#F1F1F1"/>
</g>
<mask id="mask3_93_903" style="mask-type:luminance" maskUnits="userSpaceOnUse" x="2" y="0" width="12" height="16">
<path d="M9.42999 0H3.28383C2.6873 0 2.19922 0.490909 2.19922 1.09091V14.9091C2.19922 15.5091 2.6873 16 3.28383 16H12.6838C13.2804 16 13.7684 15.5091 13.7684 14.9091V4.36364L9.42999 0Z" fill="white"/>
</mask>
<g mask="url(#mask3_93_903)">
<path d="M9.42969 0V3.27273C9.42969 3.87545 9.91505 4.36364 10.5143 4.36364H13.7681L9.42969 0Z" fill="#A1C2FA"/>
</g>
<mask id="mask4_93_903" style="mask-type:luminance" maskUnits="userSpaceOnUse" x="2" y="0" width="12" height="16">
<path d="M9.42999 0H3.28383C2.6873 0 2.19922 0.490909 2.19922 1.09091V14.9091C2.19922 15.5091 2.6873 16 3.28383 16H12.6838C13.2804 16 13.7684 15.5091 13.7684 14.9091V4.36364L9.42999 0Z" fill="white"/>
</mask>
<g mask="url(#mask4_93_903)">
<path d="M3.28383 0C2.6873 0 2.19922 0.490909 2.19922 1.09091V1.18182C2.19922 0.581818 2.6873 0.0909091 3.28383 0.0909091H9.42999V0H3.28383Z" fill="white" fill-opacity="0.2"/>
</g>
<mask id="mask5_93_903" style="mask-type:luminance" maskUnits="userSpaceOnUse" x="2" y="0" width="12" height="16">
<path d="M9.42999 0H3.28383C2.6873 0 2.19922 0.490909 2.19922 1.09091V14.9091C2.19922 15.5091 2.6873 16 3.28383 16H12.6838C13.2804 16 13.7684 15.5091 13.7684 14.9091V4.36364L9.42999 0Z" fill="white"/>
</mask>
<g mask="url(#mask5_93_903)">
<path d="M12.6838 15.9093H3.28383C2.6873 15.9093 2.19922 15.4184 2.19922 14.8184V14.9093C2.19922 15.5093 2.6873 16.0002 3.28383 16.0002H12.6838C13.2804 16.0002 13.7684 15.5093 13.7684 14.9093V14.8184C13.7684 15.4184 13.2804 15.9093 12.6838 15.9093Z" fill="#1A237E" fill-opacity="0.2"/>
</g>
<mask id="mask6_93_903" style="mask-type:luminance" maskUnits="userSpaceOnUse" x="2" y="0" width="12" height="16">
<path d="M9.42999 0H3.28383C2.6873 0 2.19922 0.490909 2.19922 1.09091V14.9091C2.19922 15.5091 2.6873 16 3.28383 16H12.6838C13.2804 16 13.7684 15.5091 13.7684 14.9091V4.36364L9.42999 0Z" fill="white"/>
</mask>
<g mask="url(#mask6_93_903)">
<path d="M10.5143 4.36337C9.91505 4.36337 9.42969 3.87519 9.42969 3.27246V3.36337C9.42969 3.9661 9.91505 4.45428 10.5143 4.45428H13.7681V4.36337H10.5143Z" fill="#1A237E" fill-opacity="0.1"/>
</g>
<path d="M9.42999 0H3.28383C2.6873 0 2.19922 0.490909 2.19922 1.09091V14.9091C2.19922 15.5091 2.6873 16 3.28383 16H12.6838C13.2804 16 13.7684 15.5091 13.7684 14.9091V4.36364L9.42999 0Z" fill="url(#paint1_radial_93_903)"/>
</g>
<defs>
<linearGradient id="paint0_linear_93_903" x1="210.83" y1="38.7635" x2="210.83" y2="408.464" gradientUnits="userSpaceOnUse">
<stop stop-color="#1A237E" stop-opacity="0.2"/>
<stop offset="1" stop-color="#1A237E" stop-opacity="0.02"/>
</linearGradient>
<radialGradient id="paint1_radial_93_903" cx="0" cy="0" r="1" gradientUnits="userSpaceOnUse" gradientTransform="translate(38.8511 31.4406) scale(1865.52 1865.52)">
<stop stop-color="white" stop-opacity="0.1"/>
<stop offset="1" stop-color="white" stop-opacity="0"/>
</radialGradient>
<clipPath id="clip0_93_903">
<rect width="11.5692" height="16" fill="white" transform="translate(2.19922)"/>
</clipPath>
</defs>
</svg>
