<svg width="12" height="16" viewBox="0 0 12 16" fill="none" xmlns="http://www.w3.org/2000/svg">
<g clip-path="url(#clip0_5_16)">
<mask id="mask0_5_16" style="mask-type:luminance" maskUnits="userSpaceOnUse" x="0" y="0" width="12" height="16">
<path d="M7.5 0H1.125C0.50625 0 0 0.490909 0 1.09091V14.9091C0 15.5091 0.50625 16 1.125 16H10.875C11.4937 16 12 15.5091 12 14.9091V4.36364L7.5 0Z" fill="white"/>
</mask>
<g mask="url(#mask0_5_16)">
<path d="M7.5 0H1.125C0.50625 0 0 0.490909 0 1.09091V14.9091C0 15.5091 0.50625 16 1.125 16H10.875C11.4937 16 12 15.5091 12 14.9091V4.36364L9.375 2.54545L7.5 0Z" fill="#4285F4"/>
</g>
<mask id="mask1_5_16" style="mask-type:luminance" maskUnits="userSpaceOnUse" x="0" y="0" width="12" height="16">
<path d="M7.5 0H1.125C0.50625 0 0 0.490909 0 1.09091V14.9091C0 15.5091 0.50625 16 1.125 16H10.875C11.4937 16 12 15.5091 12 14.9091V4.36364L7.5 0Z" fill="white"/>
</mask>
<g mask="url(#mask1_5_16)">
<path d="M7.82907 4.04456L12 8.08819V4.36365L7.82907 4.04456Z" fill="url(#paint0_linear_5_16)"/>
</g>
<mask id="mask2_5_16" style="mask-type:luminance" maskUnits="userSpaceOnUse" x="0" y="0" width="12" height="16">
<path d="M7.5 0H1.125C0.50625 0 0 0.490909 0 1.09091V14.9091C0 15.5091 0.50625 16 1.125 16H10.875C11.4937 16 12 15.5091 12 14.9091V4.36364L7.5 0Z" fill="white"/>
</mask>
<g mask="url(#mask2_5_16)">
<path d="M3 11.6364H9V10.9091H3V11.6364ZM3 13.0909H7.5V12.3636H3V13.0909ZM3 8V8.72727H9V8H3ZM3 10.1818H9V9.45455H3V10.1818Z" fill="#F1F1F1"/>
</g>
<mask id="mask3_5_16" style="mask-type:luminance" maskUnits="userSpaceOnUse" x="0" y="0" width="12" height="16">
<path d="M7.5 0H1.125C0.50625 0 0 0.490909 0 1.09091V14.9091C0 15.5091 0.50625 16 1.125 16H10.875C11.4937 16 12 15.5091 12 14.9091V4.36364L7.5 0Z" fill="white"/>
</mask>
<g mask="url(#mask3_5_16)">
<path d="M7.5 0V3.27273C7.5 3.87545 8.00344 4.36364 8.625 4.36364H12L7.5 0Z" fill="#A1C2FA"/>
</g>
<mask id="mask4_5_16" style="mask-type:luminance" maskUnits="userSpaceOnUse" x="0" y="0" width="12" height="16">
<path d="M7.5 0H1.125C0.50625 0 0 0.490909 0 1.09091V14.9091C0 15.5091 0.50625 16 1.125 16H10.875C11.4937 16 12 15.5091 12 14.9091V4.36364L7.5 0Z" fill="white"/>
</mask>
<g mask="url(#mask4_5_16)">
<path d="M1.125 0C0.50625 0 0 0.490909 0 1.09091V1.18182C0 0.581818 0.50625 0.0909091 1.125 0.0909091H7.5V0H1.125Z" fill="white" fill-opacity="0.2"/>
</g>
<mask id="mask5_5_16" style="mask-type:luminance" maskUnits="userSpaceOnUse" x="0" y="0" width="12" height="16">
<path d="M7.5 0H1.125C0.50625 0 0 0.490909 0 1.09091V14.9091C0 15.5091 0.50625 16 1.125 16H10.875C11.4937 16 12 15.5091 12 14.9091V4.36364L7.5 0Z" fill="white"/>
</mask>
<g mask="url(#mask5_5_16)">
<path d="M10.875 15.9091H1.125C0.50625 15.9091 0 15.4182 0 14.8182V14.9091C0 15.5091 0.50625 16 1.125 16H10.875C11.4937 16 12 15.5091 12 14.9091V14.8182C12 15.4182 11.4937 15.9091 10.875 15.9091Z" fill="#1A237E" fill-opacity="0.2"/>
</g>
<mask id="mask6_5_16" style="mask-type:luminance" maskUnits="userSpaceOnUse" x="0" y="0" width="12" height="16">
<path d="M7.5 0H1.125C0.50625 0 0 0.490909 0 1.09091V14.9091C0 15.5091 0.50625 16 1.125 16H10.875C11.4937 16 12 15.5091 12 14.9091V4.36364L7.5 0Z" fill="white"/>
</mask>
<g mask="url(#mask6_5_16)">
<path d="M8.625 4.36364C8.00344 4.36364 7.5 3.87546 7.5 3.27274V3.36364C7.5 3.96637 8.00344 4.45455 8.625 4.45455H12V4.36364H8.625Z" fill="#1A237E" fill-opacity="0.1"/>
</g>
<path d="M7.5 0H1.125C0.50625 0 0 0.490909 0 1.09091V14.9091C0 15.5091 0.50625 16 1.125 16H10.875C11.4937 16 12 15.5091 12 14.9091V4.36364L7.5 0Z" fill="url(#paint1_radial_5_16)"/>
</g>
<defs>
<linearGradient id="paint0_linear_5_16" x1="216.398" y1="38.7636" x2="216.398" y2="408.465" gradientUnits="userSpaceOnUse">
<stop stop-color="#1A237E" stop-opacity="0.2"/>
<stop offset="1" stop-color="#1A237E" stop-opacity="0.02"/>
</linearGradient>
<radialGradient id="paint1_radial_5_16" cx="0" cy="0" r="1" gradientUnits="userSpaceOnUse" gradientTransform="translate(38.0166 31.4406) scale(1934.98 1865.52)">
<stop stop-color="white" stop-opacity="0.1"/>
<stop offset="1" stop-color="white" stop-opacity="0"/>
</radialGradient>
<clipPath id="clip0_5_16">
<rect width="12" height="16" fill="white"/>
</clipPath>
</defs>
</svg>
