<svg width="16" height="16" viewBox="0 0 16 16" fill="none" xmlns="http://www.w3.org/2000/svg">
<g clip-path="url(#clip0_93_902)">
<path d="M12.0159 5.41574V3.53673C12.2642 3.42067 12.4745 3.23648 12.6222 3.00559C12.7699 2.7747 12.8489 2.5066 12.8502 2.23251V2.1894C12.8502 1.39025 12.2024 0.74241 11.4033 0.74241H11.3601C10.561 0.74241 9.91311 1.39025 9.91311 2.1894V2.23251C9.91438 2.5066 9.99346 2.7747 10.1412 3.00559C10.2889 3.23648 10.4991 3.42067 10.7474 3.53673V5.41574C10.0338 5.52503 9.36164 5.82095 8.79912 6.27354L3.64582 2.25964C3.68256 2.12699 3.70173 1.99058 3.70389 1.85367C3.70452 1.53118 3.6095 1.21576 3.43084 0.947291C3.25218 0.678822 2.99791 0.469371 2.7002 0.34543C2.40248 0.221489 2.0747 0.188627 1.7583 0.251001C1.44191 0.313375 1.15112 0.468183 0.922725 0.695842C0.694326 0.923502 0.538576 1.21379 0.475177 1.52997C0.411777 1.84616 0.443575 2.17405 0.56655 2.47217C0.689525 2.77028 0.898151 3.02523 1.16604 3.20476C1.43393 3.38429 1.74904 3.48033 2.07152 3.48075C2.35364 3.47942 2.63047 3.4041 2.87437 3.26232L7.9489 7.21107C7.01595 8.62043 7.04091 10.4572 8.01175 11.8408L6.46834 13.3846C6.34353 13.3448 6.21361 13.3236 6.08262 13.3218C5.34346 13.3224 4.74465 13.9219 4.74484 14.661C4.74504 15.4001 5.34422 15.9992 6.08332 15.9994C6.82248 15.9996 7.42192 15.4008 7.42256 14.6617C7.42082 14.5307 7.39961 14.4007 7.35964 14.276L8.88649 12.7486C10.2508 13.7988 12.1245 13.8893 13.5836 12.9754C15.0427 12.0614 15.7791 10.336 15.4295 8.65023C15.0799 6.96437 13.7181 5.67416 12.0159 5.41574ZM11.383 11.5957C11.101 11.6033 10.8202 11.5543 10.5574 11.4515C10.2946 11.3488 10.055 11.1945 9.85279 10.9977C9.65059 10.8009 9.48988 10.5655 9.38015 10.3056C9.27041 10.0456 9.21387 9.76626 9.21387 9.48409C9.21387 9.20191 9.27041 8.92259 9.38015 8.66262C9.48988 8.40265 9.65059 8.16731 9.85279 7.97048C10.055 7.77365 10.2946 7.61933 10.5574 7.51663C10.8202 7.41392 11.101 7.36492 11.383 7.37251C12.5198 7.41231 13.4209 8.34506 13.4215 9.48256C13.422 10.6199 12.5219 11.5536 11.3851 11.5946" fill="#FF7A59"/>
</g>
<defs>
<clipPath id="clip0_93_902">
<rect width="16" height="16" fill="white"/>
</clipPath>
</defs>
</svg>
