<svg width="16" height="16" viewBox="0 0 16 16" fill="none" xmlns="http://www.w3.org/2000/svg">
<g clip-path="url(#clip0_1598_27207)">
<path d="M12.0149 5.41598V3.53697C12.2632 3.42092 12.4735 3.23672 12.6212 3.00583C12.7689 2.77494 12.848 2.50685 12.8492 2.23276V2.18964C12.8492 1.39049 12.2014 0.742654 11.4023 0.742654H11.3591C10.56 0.742654 9.91214 1.39049 9.91214 2.18964V2.23276C9.9134 2.50685 9.99249 2.77494 10.1402 3.00583C10.2879 3.23672 10.4981 3.42092 10.7464 3.53697V5.41598C10.0328 5.52528 9.36066 5.8212 8.79814 6.27378L3.64484 2.25989C3.68158 2.12724 3.70075 1.99083 3.70292 1.85391C3.70355 1.53143 3.60852 1.216 3.42986 0.947535C3.2512 0.679066 2.99693 0.469615 2.69922 0.345674C2.40151 0.221733 2.07372 0.188871 1.75733 0.251245C1.44093 0.313619 1.15015 0.468427 0.921749 0.696086C0.69335 0.923746 0.5376 1.21403 0.4742 1.53022C0.4108 1.84641 0.442599 2.1743 0.565573 2.47241C0.688548 2.77052 0.897174 3.02547 1.16506 3.205C1.43295 3.38453 1.74806 3.48058 2.07055 3.48099C2.35266 3.47966 2.62949 3.40435 2.87339 3.26256L7.94792 7.21132C7.01497 8.62067 7.03994 10.4575 8.01077 11.841L6.46737 13.3849C6.34255 13.345 6.21264 13.3238 6.08164 13.322C5.34248 13.3227 4.74368 13.9221 4.74387 14.6613C4.74406 15.4004 5.34325 15.9995 6.08234 15.9997C6.82151 15.9999 7.42095 15.4011 7.42158 14.6619C7.41984 14.5309 7.39864 14.401 7.35867 14.2762L8.88552 12.7488C10.2498 13.7991 12.1235 13.8896 13.5827 12.9757C15.0418 12.0617 15.7781 10.3363 15.4285 8.65047C15.0789 6.96461 13.7172 5.67441 12.0149 5.41598ZM11.3821 11.5959C11.1 11.6035 10.8192 11.5545 10.5564 11.4518C10.2936 11.3491 10.054 11.1948 9.85181 10.9979C9.64962 10.8011 9.4889 10.5658 9.37917 10.3058C9.26943 10.0458 9.2129 9.76651 9.2129 9.48433C9.2129 9.20215 9.26943 8.92283 9.37917 8.66287C9.4889 8.4029 9.64962 8.16755 9.85181 7.97072C10.054 7.7739 10.2936 7.61957 10.5564 7.51687C10.8192 7.41417 11.1 7.36516 11.3821 7.37275C12.5188 7.41255 13.4199 8.34531 13.4205 9.4828C13.421 10.6202 12.5209 11.5539 11.3842 11.5948" fill="#FF7A59"/>
</g>
<defs>
<clipPath id="clip0_1598_27207">
<rect width="16" height="16" fill="white"/>
</clipPath>
</defs>
</svg>
