<svg width="16" height="16" viewBox="0 0 16 16" fill="none" xmlns="http://www.w3.org/2000/svg">
<path d="M14.5464 1.71387H7.66699C7.66699 2.53749 7.99418 3.32738 8.57657 3.90977C9.15896 4.49216 9.94885 4.81935 10.7725 4.81935H12.0397V6.04292C12.0409 7.75647 13.4297 9.14532 15.1432 9.14644V2.31066C15.1432 1.98115 14.8761 1.71387 14.5464 1.71387Z" fill="#2684FF"/>
<path d="M11.143 5.1416H4.26367C4.26473 6.85515 5.65353 8.244 7.36714 8.24512H8.63441V9.47261C8.63659 11.1862 10.0263 12.5741 11.7399 12.5741V5.7385C11.7399 5.40889 11.4727 5.1416 11.143 5.1416Z" fill="url(#paint0_linear_1598_27274)"/>
<path d="M7.73685 8.56738H0.857422C0.857422 10.2825 2.24784 11.6729 3.9629 11.6729H5.23415V12.8964C5.23526 14.6084 6.62166 15.9966 8.33369 15.9998V9.16423C8.33369 8.83461 8.06646 8.56738 7.73685 8.56738Z" fill="url(#paint1_linear_1598_27274)"/>
<defs>
<linearGradient id="paint0_linear_1598_27274" x1="1875.54" y1="8.56347" x2="1133.39" y2="875.874" gradientUnits="userSpaceOnUse">
<stop offset="0.18" stop-color="#0052CC"/>
<stop offset="1" stop-color="#2684FF"/>
</linearGradient>
<linearGradient id="paint1_linear_1598_27274" x1="1922.42" y1="18.2378" x2="1063.95" y2="964.202" gradientUnits="userSpaceOnUse">
<stop offset="0.18" stop-color="#0052CC"/>
<stop offset="1" stop-color="#2684FF"/>
</linearGradient>
</defs>
</svg>
