<svg width="16" height="16" viewBox="0 0 16 16" fill="none" xmlns="http://www.w3.org/2000/svg">
<g clip-path="url(#clip0_93_900)">
<path fill-rule="evenodd" clip-rule="evenodd" d="M8.21169 14.0864L8.15554 14.1297C8.10604 14.9016 7.98135 15.9967 7.98135 15.9967H7.48403C7.48403 15.9967 7.35982 14.8954 7.30985 14.1297L7.25417 14.0926C7.25417 14.0926 0.581473 9.13266 6.34614 1.78275C7.01764 0.986552 7.59587 0.17751 7.71437 0.00951505C7.72674 -0.00333444 7.7453 -0.00333444 7.75768 0.00951505C7.8757 0.17751 8.45393 0.986552 9.12591 1.78275C14.8906 9.13266 8.21788 14.0926 8.21169 14.0864ZM8.11223 13.5948V13.5824L7.75149 5.57906C7.75149 5.55431 7.71437 5.55431 7.71437 5.57906L7.35363 13.5824V13.5948C7.43454 13.7252 7.73293 13.9807 7.73293 13.9807C7.73293 13.9807 8.03132 13.7252 8.11223 13.5948Z" fill="#01EC64"/>
</g>
<defs>
<clipPath id="clip0_93_900">
<rect width="7.47174" height="16" fill="white" transform="translate(4)"/>
</clipPath>
</defs>
</svg>
