<svg width="16" height="16" viewBox="0 0 16 16" fill="none" xmlns="http://www.w3.org/2000/svg">
<g clip-path="url(#clip0_1598_27159)">
<path d="M11.0548 6.36751C10.2119 2.64901 8.45501 1.65909 8.00685 0.959326C7.82205 0.651062 7.65834 0.330635 7.51685 0.000244141C7.49317 0.330582 7.44968 0.538696 7.16889 0.789202C6.60511 1.29187 4.21071 3.24307 4.0092 7.46809C3.82146 11.4074 6.90517 13.8365 7.31259 14.0875C7.62586 14.2417 8.0074 14.0908 8.19349 13.9493C9.68001 12.9291 11.711 10.2093 11.0564 6.36751" fill="#10AA50"/>
<path d="M7.64381 11.9897C7.56619 12.9648 7.51058 13.5313 7.31348 14.0885C7.31348 14.0885 7.44286 15.0167 7.5337 16.0001H7.85523C7.93193 15.3076 8.04903 14.6203 8.20594 13.9415C7.78971 13.7367 7.65978 12.8453 7.64381 11.9897Z" fill="#B8C4C2"/>
<path d="M8.206 13.942C7.78537 13.7476 7.6637 12.8376 7.64498 11.9897C7.749 10.5911 7.77933 9.18793 7.73582 7.78613C7.7138 7.05057 7.74628 0.973451 7.55469 0.0837402C7.68575 0.385076 7.83676 0.67734 8.0067 0.958586C8.45486 1.6589 10.2123 2.64882 11.0546 6.36732C11.7109 10.2026 9.69087 12.9152 8.206 13.942Z" fill="#12924F"/>
</g>
<defs>
<clipPath id="clip0_1598_27159">
<rect width="16" height="16" fill="white"/>
</clipPath>
</defs>
</svg>
