<svg width="16" height="16" viewBox="0 0 16 16" fill="none" xmlns="http://www.w3.org/2000/svg">
<path fill-rule="evenodd" clip-rule="evenodd" d="M14.7376 12.3754C13.8673 12.3505 13.1921 12.442 12.6262 12.6859C12.4632 12.753 12.2017 12.753 12.1802 12.9631C12.2673 13.0513 12.2778 13.1956 12.3542 13.3179C12.4847 13.5397 12.7135 13.8385 12.9201 13.9936L13.6165 14.5035C14.041 14.7694 14.5198 14.9246 14.9333 15.1907C15.1728 15.3459 15.4121 15.5454 15.6517 15.7118C15.7736 15.8005 15.8475 15.9449 16 16V15.9665C15.9239 15.8671 15.9019 15.723 15.8261 15.6117L15.4992 15.2905C15.1838 14.8583 14.7918 14.4812 14.3674 14.1712C14.019 13.9272 13.2575 13.5948 13.116 13.185L13.0945 13.1601C13.3336 13.1353 13.6165 13.0491 13.8453 12.9825C14.2156 12.8831 14.5527 12.905 14.9333 12.8054L15.456 12.6501V12.5508C15.2601 12.3513 15.1187 12.0852 14.9121 11.8969C14.3571 11.4093 13.7473 10.9326 13.116 10.5336C12.7786 10.312 12.3432 10.1677 11.9841 9.97966C11.8531 9.91309 11.6358 9.8798 11.5597 9.769C11.3633 9.52556 11.2548 9.20386 11.1133 8.91545L10.221 6.987C10.0251 6.55476 9.90507 6.12252 9.66602 5.72357C8.5449 3.83934 7.32572 2.69787 5.45377 1.57826C5.05128 1.3455 4.57244 1.24539 4.06335 1.12366L3.24714 1.07895C3.07273 1.00144 2.89881 0.790787 2.74635 0.690924C2.12603 0.291969 0.526066 -0.572515 0.0686907 0.566716C-0.225249 1.28712 0.504111 1.99635 0.751704 2.36226C0.937093 2.61713 1.17615 2.9053 1.30714 3.19346C1.38032 3.38176 1.40472 3.58148 1.48107 3.78096C1.65499 4.2686 1.81843 4.81188 2.04699 5.26648C2.16896 5.49925 2.29703 5.74344 2.44948 5.95385C2.53657 6.07805 2.68902 6.13122 2.72147 6.33069C2.56901 6.55253 2.55852 6.88466 2.47144 7.16214C2.07944 8.41465 2.23189 9.96625 2.78684 10.8884C2.96126 11.1653 3.37228 11.7752 3.92992 11.5422C4.41974 11.3427 4.31045 10.711 4.45194 10.1568C4.48487 10.0239 4.46291 9.9352 4.52804 9.84626V9.8711L4.97444 10.791C5.3118 11.334 5.89968 11.8994 6.38926 12.2765C6.65027 12.476 6.85712 12.8198 7.1835 12.9415V12.908H7.16204C7.09666 12.8086 6.9986 12.7639 6.91152 12.6864C6.71564 12.4869 6.49805 12.243 6.34559 12.0214C5.8887 11.4008 5.48621 10.7135 5.1269 10.0043C4.95249 9.6607 4.80003 9.28385 4.65903 8.94029C4.59317 8.80714 4.59317 8.60742 4.48462 8.54134C4.32119 8.78479 4.08213 8.99594 3.96187 9.29503C3.75502 9.77149 3.73355 10.359 3.65744 10.9686C3.61353 10.9798 3.63305 10.9686 3.61354 10.9934C3.26569 10.905 3.14567 10.5388 3.01517 10.2288C2.68878 9.44184 2.63414 8.1784 2.9171 7.26945C2.99321 7.03669 3.32008 6.30511 3.18958 6.08352C3.12372 5.87286 2.90661 5.75114 2.7866 5.5847C2.64512 5.37405 2.49315 5.10824 2.39508 4.87548C2.13408 4.25444 2.00357 3.56757 1.72036 2.94678C1.58937 2.65862 1.36105 2.35928 1.17591 2.09348C0.96905 1.79414 0.740972 1.58348 0.577536 1.22899C0.523139 1.10478 0.447031 0.907542 0.534115 0.774392C0.555582 0.685708 0.59949 0.650184 0.686086 0.630311C0.827568 0.506103 1.23055 0.663599 1.37203 0.729677C1.77452 0.896115 2.11188 1.05113 2.44924 1.28364C2.6017 1.39444 2.76513 1.60509 2.96101 1.66074H3.18982C3.53816 1.73824 3.92967 1.68558 4.25581 1.78494C4.83272 1.97374 5.35498 2.25047 5.82333 2.55006C7.24888 3.46994 8.42464 4.77785 9.21889 6.34088C9.34939 6.59575 9.40379 6.82852 9.5238 7.09457C9.75261 7.63785 10.0356 8.19182 10.2637 8.72417C10.4925 9.2451 10.7101 9.77745 11.0364 10.2097C11.1999 10.4425 11.8526 10.5642 12.1463 10.6862C12.3642 10.7855 12.7013 10.8749 12.8977 10.9967C13.2675 11.2294 13.6375 11.4955 13.9856 11.7504C14.1595 11.883 14.704 12.1602 14.7364 12.3813L14.7376 12.3754ZM3.63866 2.74383C3.48829 2.74247 3.33839 2.76109 3.19275 2.79922V2.82406H3.21421C3.3013 3.00143 3.45376 3.1234 3.56255 3.27866L3.81307 3.81077L3.83454 3.78593C3.987 3.67513 4.06335 3.49777 4.06335 3.23196C3.99797 3.15446 3.98724 3.0767 3.93284 2.9992C3.86747 2.8884 3.72599 2.83276 3.63866 2.74432V2.74383Z" fill="#00678C"/>
</svg>
