<svg width="16" height="16" viewBox="0 0 16 16" fill="none" xmlns="http://www.w3.org/2000/svg">
<g clip-path="url(#clip0_93_898)">
<path fill-rule="evenodd" clip-rule="evenodd" d="M3.64129 2.69338C3.45928 2.69001 3.3305 2.71312 3.19446 2.74297V2.76769H3.21934C3.3063 2.94606 3.45962 3.06093 3.5669 3.21459C3.64938 3.38841 3.73212 3.56198 3.81485 3.73555C3.82329 3.72728 3.83164 3.7191 3.83973 3.71084C3.99365 3.60263 4.06382 3.4294 4.06314 3.16492C4.00141 3.09998 3.99222 3.01884 3.93891 2.94151C3.86824 2.83836 3.73077 2.78008 3.64129 2.69338ZM15.6524 15.4246C15.7696 15.5106 15.8481 15.6438 16 15.6978V15.6729C15.92 15.5715 15.8997 15.4316 15.8263 15.3254C15.7191 15.2181 15.6109 15.1104 15.5037 15.0027C15.1881 14.5839 14.7879 14.2164 14.3622 13.9109C14.023 13.6671 13.263 13.3382 13.1213 12.9432C13.1132 12.9348 13.1048 12.9264 13.0963 12.918C13.3369 12.891 13.6189 12.804 13.8409 12.7444C14.2141 12.6443 14.5476 12.6703 14.9327 12.5707C15.1067 12.5209 15.2803 12.4711 15.4539 12.4219V12.3223C15.2592 12.1225 15.1204 11.858 14.9082 11.6771C14.3522 11.2041 13.7459 10.7311 13.1212 10.3371C12.7751 10.1183 12.3467 9.97639 11.9796 9.79101C11.8561 9.72877 11.6394 9.6963 11.5577 9.59248C11.3651 9.34655 11.26 9.03492 11.1112 8.7486C10.7998 8.1487 10.4936 7.49356 10.2175 6.86238C10.0295 6.43209 9.9065 6.0077 9.67179 5.62151C8.54495 3.76886 7.33175 2.65054 5.45295 1.55136C5.05285 1.31766 4.57162 1.2254 4.06314 1.10479C3.79031 1.08835 3.51697 1.07157 3.24414 1.05512C3.07757 0.985541 2.90434 0.781781 2.74789 0.682852C2.12531 0.289669 0.528541 -0.565771 0.0677182 0.558875C-0.223416 1.26858 0.502565 1.96116 0.76241 2.32095C0.944833 2.5732 1.17803 2.85616 1.30858 3.13979C1.39419 3.32626 1.40878 3.5134 1.48257 3.71067C1.66289 4.19679 1.81959 4.72559 2.05287 5.17494C2.17102 5.40215 2.30116 5.64175 2.45027 5.84492C2.54177 5.96966 2.69813 6.02456 2.72268 6.21719C2.56977 6.43166 2.561 6.76446 2.47506 7.03611C2.08711 8.25918 2.23343 9.77912 2.79774 10.6844C2.97063 10.9621 3.37849 11.5583 3.93891 11.3295C4.42917 11.1298 4.31987 10.5108 4.46012 9.96466C4.49167 9.8406 4.47244 9.7496 4.53451 9.66687V9.69158C4.68362 9.98938 4.83256 10.2872 4.98133 10.5849C5.31211 11.1173 5.89884 11.6741 6.3961 12.0493C6.65358 12.244 6.85659 12.5807 7.19014 12.6946V12.6694H7.16526C7.10032 12.5691 6.99929 12.527 6.91731 12.4463C6.72299 12.2558 6.50701 12.0191 6.34626 11.801C5.89387 11.1871 5.49436 10.5151 5.13036 9.81572C4.95637 9.48166 4.80523 9.11319 4.65857 8.77339C4.60215 8.64225 4.60282 8.44414 4.48492 8.37624C4.32434 8.62521 4.08794 8.82678 3.96371 9.12078C3.76518 9.59088 3.73962 10.1641 3.666 10.7586C3.62248 10.7743 3.64179 10.7636 3.61615 10.7833C3.27037 10.7002 3.14901 10.3443 3.02064 10.039C2.69586 9.26711 2.63556 8.02405 2.92138 7.13538C2.99534 6.90556 3.32999 6.18135 3.19421 5.96899C3.12961 5.75696 2.91674 5.63459 2.79757 5.47257C2.64947 5.27235 2.50222 5.00897 2.39983 4.77763C2.13434 4.17579 2.01019 3.50016 1.73027 2.89166C1.59634 2.60095 1.37006 2.30644 1.18418 2.04778C0.978399 1.76137 0.747904 1.55052 0.588589 1.20389C0.53183 1.08084 0.454661 0.883914 0.53883 0.757323C0.565396 0.671888 0.603349 0.636298 0.68794 0.608382C0.832073 0.497393 1.23259 0.645322 1.38263 0.707648C1.78037 0.872866 2.11283 1.03032 2.44993 1.25357C2.6116 1.36084 2.7753 1.56848 2.97071 1.62592H3.19413C3.54379 1.70612 3.9352 1.65097 4.26134 1.75006C4.83829 1.9254 5.35529 2.19815 5.8248 2.49468C7.25508 3.39769 8.42468 4.68351 9.22471 6.21719C9.35341 6.46413 9.40924 6.69977 9.52242 6.96181C9.75106 7.49002 10.0394 8.03341 10.267 8.55006C10.4939 9.0652 10.7152 9.58531 11.0361 10.0143C11.2048 10.2396 11.8567 10.3605 12.1532 10.4859C12.3608 10.5735 12.701 10.6651 12.8974 10.7833C13.2734 11.0101 13.6371 11.2798 13.9895 11.5281C14.1656 11.6524 14.7071 11.9244 14.7338 12.1483C13.8611 12.1251 13.1944 12.2062 12.6245 12.4464C12.4624 12.5145 12.2043 12.5165 12.1776 12.7191C12.2667 12.8124 12.2808 12.9521 12.3516 13.0667C12.4873 13.287 12.7171 13.5819 12.9223 13.7369C13.1463 13.906 13.3772 14.0869 13.617 14.2333C14.0442 14.4939 14.5212 14.6426 14.9323 14.9034C15.1755 15.0574 15.4161 15.251 15.6524 15.4246Z" fill="#4DCAFF"/>
</g>
<defs>
<clipPath id="clip0_93_898">
<rect width="16" height="16" fill="white"/>
</clipPath>
</defs>
</svg>
