<svg width="16" height="16" viewBox="0 0 16 16" fill="none" xmlns="http://www.w3.org/2000/svg">
<g clip-path="url(#clip0_93_897)">
<path d="M15.0497 9.84174C13.1421 10.2352 13.011 9.58941 13.011 9.58941C15.025 6.60094 15.8669 2.80752 15.1404 1.8791C13.1582 -0.653466 9.72707 0.544282 9.6698 0.575325L9.65139 0.578661C9.2745 0.50041 8.85278 0.453844 8.37873 0.446084C7.51566 0.431973 6.86092 0.672369 6.36409 1.04913C6.36409 1.04913 0.243227 -1.47247 0.527944 4.22046C0.588492 5.43155 2.26383 13.3843 4.26204 10.9822C4.9924 10.1038 5.69813 9.36114 5.69813 9.36114C6.04859 9.59397 6.46819 9.71275 6.90806 9.6701L6.94225 9.64111C6.9316 9.75015 6.93648 9.85681 6.95591 9.9831C6.44113 10.5582 6.59243 10.6592 5.56337 10.8711C4.52206 11.0857 5.13376 11.4677 5.53316 11.5676C6.01735 11.6886 7.13749 11.8602 7.89434 10.8006L7.8642 10.9215C8.06585 11.0831 8.20747 11.9723 8.18374 12.7785C8.16001 13.5846 8.14417 14.1381 8.30304 14.5704C8.46204 15.0027 8.62041 15.9754 9.97324 15.6855C11.1036 15.4433 11.6894 14.8155 11.7709 13.7684C11.8287 13.024 11.9596 13.134 11.9678 12.4685L12.0728 12.1534C12.1938 11.1443 12.092 10.8187 12.7884 10.9702L12.9577 10.985C13.4702 11.0083 14.1411 10.9025 14.5349 10.7196C15.3827 10.3261 15.8855 9.66914 15.0495 9.84174H15.0497Z" fill="#336791"/>
<path d="M6.7237 4.76227C6.55181 4.73835 6.39614 4.76048 6.31738 4.82013C6.27312 4.85367 6.25939 4.89254 6.25567 4.91929C6.2458 4.99016 6.29544 5.06854 6.32597 5.10895C6.4123 5.22337 6.5384 5.30201 6.66322 5.31933C6.68131 5.32189 6.69933 5.32305 6.71722 5.32305C6.92536 5.32305 7.11463 5.16097 7.13131 5.04134C7.15216 4.89151 6.93466 4.79158 6.7237 4.76227ZM12.4183 4.76702C12.4019 4.64958 12.1929 4.6161 11.9946 4.64368C11.7965 4.67126 11.6045 4.76067 11.6205 4.87836C11.6334 4.96989 11.7986 5.12614 11.9943 5.12614C12.0108 5.12614 12.0275 5.12505 12.0443 5.12267C12.1749 5.10459 12.2707 5.02165 12.3162 4.97387C12.3855 4.90101 12.4257 4.81981 12.4183 4.76702Z" fill="white"/>
<mask id="path-3-inside-1_93_897" fill="white">
<path d="M15.6842 9.79698C15.6115 9.57704 15.3774 9.5063 14.9885 9.5866C13.8336 9.82494 13.42 9.65985 13.2843 9.55985C14.1819 8.19239 14.9203 6.53938 15.3187 4.99714C15.5074 4.26658 15.6116 3.58811 15.6202 3.0351C15.6296 2.42814 15.5262 1.98211 15.313 1.70965C14.4534 0.611253 13.1918 0.0220639 11.6646 0.00590064C10.6147 -0.00590109 9.72764 0.262781 9.55569 0.338337C9.19355 0.248285 8.79877 0.192997 8.36897 0.185941C7.58082 0.173177 6.89953 0.361877 6.33548 0.746524C6.09047 0.655317 5.45728 0.437947 4.68292 0.313195C3.34419 0.0976847 2.28037 0.260985 1.52121 0.798798C0.615359 1.44058 0.197167 2.58779 0.278176 4.20847C0.305436 4.75373 0.616129 6.43111 1.10641 8.03749C1.75179 10.1518 2.45335 11.3487 3.19147 11.5949C3.27787 11.6237 3.37748 11.6439 3.48735 11.6439C3.75661 11.6439 4.08674 11.5225 4.43021 11.1096C4.84914 10.607 5.2825 10.1167 5.72974 9.63913C6.01991 9.79486 6.33869 9.88183 6.66471 9.89056C6.66535 9.89909 6.66618 9.90762 6.66695 9.91609C6.61083 9.98301 6.55588 10.0509 6.50212 10.1197C6.27621 10.4065 6.2292 10.4662 5.50205 10.6159C5.2952 10.6586 4.74584 10.7718 4.73776 11.1569C4.72903 11.5777 5.38717 11.7544 5.46215 11.7731C5.72346 11.8386 5.97521 11.8708 6.21528 11.8708C6.79915 11.8708 7.31297 11.6789 7.7236 11.3076C7.71096 12.8076 7.7735 14.2856 7.9536 14.7359C8.10112 15.1046 8.46146 16.0056 9.59969 16.0055C9.76671 16.0055 9.95053 15.9861 10.1528 15.9427C11.3407 15.6881 11.8566 15.163 12.0561 14.0055C12.1629 13.3869 12.3462 11.9097 12.4324 11.1173C12.6143 11.1741 12.8484 11.2 13.1016 11.2C13.6296 11.2 14.2389 11.0878 14.6209 10.9104C15.0502 10.7111 15.8247 10.222 15.6842 9.79698ZM12.8553 4.44258C12.8514 4.6765 12.8192 4.88887 12.7851 5.11054C12.7483 5.34894 12.7103 5.59543 12.7008 5.89464C12.6914 6.18584 12.7277 6.48858 12.7629 6.78138C12.8339 7.37275 12.9069 7.98156 12.6246 8.5823C12.5777 8.49921 12.5359 8.41334 12.4995 8.32516C12.4644 8.24011 12.3882 8.10349 12.2827 7.91441C11.8723 7.17834 10.9112 5.45465 11.4032 4.75129C11.5497 4.54194 11.9217 4.32668 12.8553 4.44258ZM11.7236 0.479573C13.092 0.509783 14.1744 1.02168 14.9407 2.00097C15.5285 2.75211 14.8813 6.16993 13.0076 9.11851C12.9887 9.09455 12.9698 9.07067 12.9507 9.04686L12.927 9.01723C13.4112 8.2176 13.3165 7.42643 13.2322 6.725C13.1976 6.43714 13.1649 6.16525 13.1732 5.90985C13.1818 5.63918 13.2176 5.40699 13.2523 5.1825C13.2948 4.90586 13.3381 4.61961 13.3261 4.28217C13.3351 4.24676 13.3387 4.20494 13.334 4.1553C13.3035 3.83171 12.9341 2.86327 12.1811 1.98673C11.7692 1.50729 11.1685 0.970757 10.3483 0.608879C10.7011 0.53576 11.1835 0.467579 11.7236 0.479573ZM4.06673 10.8074C3.6883 11.2624 3.42699 11.1752 3.34105 11.1465C2.78111 10.9598 2.13137 9.77626 1.55854 7.89953C1.06286 6.27564 0.773208 4.6427 0.750245 4.1848C0.677896 2.73665 1.02893 1.72741 1.79367 1.18505C3.03824 0.302483 5.08443 0.830739 5.90664 1.09865C5.89484 1.11032 5.88252 1.12123 5.87085 1.13309C4.52161 2.49568 4.55361 4.8237 4.55695 4.96603C4.55682 5.02093 4.56144 5.09867 4.56772 5.20559C4.59094 5.59716 4.63417 6.32592 4.51872 7.15121C4.41148 7.91813 4.6479 8.66876 5.16724 9.21068C5.22054 9.26618 5.27656 9.31902 5.33509 9.36897C5.10393 9.61655 4.60152 10.1641 4.06673 10.8074ZM5.50852 8.88363C5.08995 8.44683 4.89984 7.8393 4.98688 7.21663C5.10874 6.34484 5.06378 5.58555 5.0396 5.17763C5.0362 5.12054 5.03318 5.07051 5.03145 5.03107C5.22855 4.85628 6.14197 4.3669 6.79337 4.51615C7.0906 4.5842 7.27173 4.78663 7.34703 5.13478C7.73674 6.9373 7.3986 7.68857 7.1269 8.29232C7.07091 8.41669 7.01799 8.53426 6.97284 8.65587L6.93782 8.7499C6.84918 8.9876 6.76669 9.20862 6.71557 9.41849C6.27057 9.41721 5.83769 9.2271 5.50852 8.88356V8.88363ZM5.57683 11.3145C5.44689 11.2821 5.33002 11.2257 5.26146 11.1789C5.31874 11.152 5.42065 11.1153 5.59742 11.0789C6.45286 10.9028 6.58498 10.7785 6.87349 10.4122C6.93961 10.3282 7.01459 10.233 7.11844 10.117L7.11856 10.1169C7.2732 9.94373 7.34395 9.97311 7.47223 10.0263C7.5762 10.0693 7.67748 10.1996 7.71853 10.3431C7.73796 10.4108 7.75977 10.5393 7.68838 10.6394C7.08572 11.4832 6.20752 11.4724 5.57683 11.3145ZM10.0537 15.4805C9.00723 15.7048 8.63669 15.1708 8.39251 14.5604C8.23492 14.1663 8.15744 12.3893 8.21241 10.4268C8.21311 10.4007 8.20939 10.3755 8.20221 10.3517C8.19578 10.3049 8.18601 10.2585 8.17296 10.2131C8.09124 9.9275 7.89209 9.68865 7.65317 9.58961C7.55824 9.5503 7.38404 9.47814 7.17469 9.5317C7.21933 9.34774 7.29674 9.13999 7.3807 8.91505L7.41592 8.82045C7.45555 8.71378 7.50533 8.60327 7.55792 8.48628C7.84225 7.85463 8.23165 6.98945 7.80903 5.03491C7.65073 4.30282 7.12209 3.94531 6.32073 4.02837C5.84032 4.07808 5.40077 4.27191 5.18154 4.38306C5.1344 4.40692 5.0913 4.43001 5.05102 4.45246C5.1122 3.71485 5.34336 2.33636 6.2081 1.46418C6.75258 0.915147 7.47768 0.643964 8.36115 0.658588C10.1019 0.687066 11.2182 1.58041 11.8482 2.32488C12.3911 2.96634 12.685 3.61255 12.8023 3.96109C11.9201 3.87135 11.32 4.04549 11.0159 4.48036C10.3542 5.4263 11.3779 7.26224 11.8699 8.14461C11.9602 8.3063 12.038 8.44606 12.0625 8.50546C12.2227 8.89376 12.4302 9.15301 12.5816 9.34223C12.628 9.40021 12.6731 9.45646 12.7073 9.50559C12.4401 9.58262 11.9602 9.76061 12.0039 10.6503C11.9686 11.0967 11.7178 13.1868 11.5903 13.9252C11.4221 14.9008 11.0631 15.2641 10.0537 15.4806V15.4805ZM14.4219 10.4817C14.1487 10.6085 13.6914 10.7037 13.2571 10.7241C12.7773 10.7466 12.5331 10.6704 12.4756 10.6235C12.4487 10.0691 12.655 10.0111 12.8734 9.94982C12.9077 9.9402 12.9412 9.93077 12.9735 9.91949C12.9936 9.93584 13.0156 9.95207 13.0397 9.96797C13.4253 10.2225 14.1131 10.2499 15.0841 10.0495L15.0947 10.0474C14.9638 10.1698 14.7397 10.3341 14.4219 10.4817Z"/>
</mask>
<path d="M15.6842 9.79698C15.6115 9.57704 15.3774 9.5063 14.9885 9.5866C13.8336 9.82494 13.42 9.65985 13.2843 9.55985C14.1819 8.19239 14.9203 6.53938 15.3187 4.99714C15.5074 4.26658 15.6116 3.58811 15.6202 3.0351C15.6296 2.42814 15.5262 1.98211 15.313 1.70965C14.4534 0.611253 13.1918 0.0220639 11.6646 0.00590064C10.6147 -0.00590109 9.72764 0.262781 9.55569 0.338337C9.19355 0.248285 8.79877 0.192997 8.36897 0.185941C7.58082 0.173177 6.89953 0.361877 6.33548 0.746524C6.09047 0.655317 5.45728 0.437947 4.68292 0.313195C3.34419 0.0976847 2.28037 0.260985 1.52121 0.798798C0.615359 1.44058 0.197167 2.58779 0.278176 4.20847C0.305436 4.75373 0.616129 6.43111 1.10641 8.03749C1.75179 10.1518 2.45335 11.3487 3.19147 11.5949C3.27787 11.6237 3.37748 11.6439 3.48735 11.6439C3.75661 11.6439 4.08674 11.5225 4.43021 11.1096C4.84914 10.607 5.2825 10.1167 5.72974 9.63913C6.01991 9.79486 6.33869 9.88183 6.66471 9.89056C6.66535 9.89909 6.66618 9.90762 6.66695 9.91609C6.61083 9.98301 6.55588 10.0509 6.50212 10.1197C6.27621 10.4065 6.2292 10.4662 5.50205 10.6159C5.2952 10.6586 4.74584 10.7718 4.73776 11.1569C4.72903 11.5777 5.38717 11.7544 5.46215 11.7731C5.72346 11.8386 5.97521 11.8708 6.21528 11.8708C6.79915 11.8708 7.31297 11.6789 7.7236 11.3076C7.71096 12.8076 7.7735 14.2856 7.9536 14.7359C8.10112 15.1046 8.46146 16.0056 9.59969 16.0055C9.76671 16.0055 9.95053 15.9861 10.1528 15.9427C11.3407 15.6881 11.8566 15.163 12.0561 14.0055C12.1629 13.3869 12.3462 11.9097 12.4324 11.1173C12.6143 11.1741 12.8484 11.2 13.1016 11.2C13.6296 11.2 14.2389 11.0878 14.6209 10.9104C15.0502 10.7111 15.8247 10.222 15.6842 9.79698ZM12.8553 4.44258C12.8514 4.6765 12.8192 4.88887 12.7851 5.11054C12.7483 5.34894 12.7103 5.59543 12.7008 5.89464C12.6914 6.18584 12.7277 6.48858 12.7629 6.78138C12.8339 7.37275 12.9069 7.98156 12.6246 8.5823C12.5777 8.49921 12.5359 8.41334 12.4995 8.32516C12.4644 8.24011 12.3882 8.10349 12.2827 7.91441C11.8723 7.17834 10.9112 5.45465 11.4032 4.75129C11.5497 4.54194 11.9217 4.32668 12.8553 4.44258ZM11.7236 0.479573C13.092 0.509783 14.1744 1.02168 14.9407 2.00097C15.5285 2.75211 14.8813 6.16993 13.0076 9.11851C12.9887 9.09455 12.9698 9.07067 12.9507 9.04686L12.927 9.01723C13.4112 8.2176 13.3165 7.42643 13.2322 6.725C13.1976 6.43714 13.1649 6.16525 13.1732 5.90985C13.1818 5.63918 13.2176 5.40699 13.2523 5.1825C13.2948 4.90586 13.3381 4.61961 13.3261 4.28217C13.3351 4.24676 13.3387 4.20494 13.334 4.1553C13.3035 3.83171 12.9341 2.86327 12.1811 1.98673C11.7692 1.50729 11.1685 0.970757 10.3483 0.608879C10.7011 0.53576 11.1835 0.467579 11.7236 0.479573ZM4.06673 10.8074C3.6883 11.2624 3.42699 11.1752 3.34105 11.1465C2.78111 10.9598 2.13137 9.77626 1.55854 7.89953C1.06286 6.27564 0.773208 4.6427 0.750245 4.1848C0.677896 2.73665 1.02893 1.72741 1.79367 1.18505C3.03824 0.302483 5.08443 0.830739 5.90664 1.09865C5.89484 1.11032 5.88252 1.12123 5.87085 1.13309C4.52161 2.49568 4.55361 4.8237 4.55695 4.96603C4.55682 5.02093 4.56144 5.09867 4.56772 5.20559C4.59094 5.59716 4.63417 6.32592 4.51872 7.15121C4.41148 7.91813 4.6479 8.66876 5.16724 9.21068C5.22054 9.26618 5.27656 9.31902 5.33509 9.36897C5.10393 9.61655 4.60152 10.1641 4.06673 10.8074ZM5.50852 8.88363C5.08995 8.44683 4.89984 7.8393 4.98688 7.21663C5.10874 6.34484 5.06378 5.58555 5.0396 5.17763C5.0362 5.12054 5.03318 5.07051 5.03145 5.03107C5.22855 4.85628 6.14197 4.3669 6.79337 4.51615C7.0906 4.5842 7.27173 4.78663 7.34703 5.13478C7.73674 6.9373 7.3986 7.68857 7.1269 8.29232C7.07091 8.41669 7.01799 8.53426 6.97284 8.65587L6.93782 8.7499C6.84918 8.9876 6.76669 9.20862 6.71557 9.41849C6.27057 9.41721 5.83769 9.2271 5.50852 8.88356V8.88363ZM5.57683 11.3145C5.44689 11.2821 5.33002 11.2257 5.26146 11.1789C5.31874 11.152 5.42065 11.1153 5.59742 11.0789C6.45286 10.9028 6.58498 10.7785 6.87349 10.4122C6.93961 10.3282 7.01459 10.233 7.11844 10.117L7.11856 10.1169C7.2732 9.94373 7.34395 9.97311 7.47223 10.0263C7.5762 10.0693 7.67748 10.1996 7.71853 10.3431C7.73796 10.4108 7.75977 10.5393 7.68838 10.6394C7.08572 11.4832 6.20752 11.4724 5.57683 11.3145ZM10.0537 15.4805C9.00723 15.7048 8.63669 15.1708 8.39251 14.5604C8.23492 14.1663 8.15744 12.3893 8.21241 10.4268C8.21311 10.4007 8.20939 10.3755 8.20221 10.3517C8.19578 10.3049 8.18601 10.2585 8.17296 10.2131C8.09124 9.9275 7.89209 9.68865 7.65317 9.58961C7.55824 9.5503 7.38404 9.47814 7.17469 9.5317C7.21933 9.34774 7.29674 9.13999 7.3807 8.91505L7.41592 8.82045C7.45555 8.71378 7.50533 8.60327 7.55792 8.48628C7.84225 7.85463 8.23165 6.98945 7.80903 5.03491C7.65073 4.30282 7.12209 3.94531 6.32073 4.02837C5.84032 4.07808 5.40077 4.27191 5.18154 4.38306C5.1344 4.40692 5.0913 4.43001 5.05102 4.45246C5.1122 3.71485 5.34336 2.33636 6.2081 1.46418C6.75258 0.915147 7.47768 0.643964 8.36115 0.658588C10.1019 0.687066 11.2182 1.58041 11.8482 2.32488C12.3911 2.96634 12.685 3.61255 12.8023 3.96109C11.9201 3.87135 11.32 4.04549 11.0159 4.48036C10.3542 5.4263 11.3779 7.26224 11.8699 8.14461C11.9602 8.3063 12.038 8.44606 12.0625 8.50546C12.2227 8.89376 12.4302 9.15301 12.5816 9.34223C12.628 9.40021 12.6731 9.45646 12.7073 9.50559C12.4401 9.58262 11.9602 9.76061 12.0039 10.6503C11.9686 11.0967 11.7178 13.1868 11.5903 13.9252C11.4221 14.9008 11.0631 15.2641 10.0537 15.4806V15.4805ZM14.4219 10.4817C14.1487 10.6085 13.6914 10.7037 13.2571 10.7241C12.7773 10.7466 12.5331 10.6704 12.4756 10.6235C12.4487 10.0691 12.655 10.0111 12.8734 9.94982C12.9077 9.9402 12.9412 9.93077 12.9735 9.91949C12.9936 9.93584 13.0156 9.95207 13.0397 9.96797C13.4253 10.2225 14.1131 10.2499 15.0841 10.0495L15.0947 10.0474C14.9638 10.1698 14.7397 10.3341 14.4219 10.4817Z" fill="white" stroke="white" stroke-width="4" mask="url(#path-3-inside-1_93_897)"/>
</g>
<defs>
<clipPath id="clip0_93_897">
<rect width="16" height="16" fill="white"/>
</clipPath>
</defs>
</svg>
