<svg width="16" height="16" viewBox="0 0 16 16" fill="none" xmlns="http://www.w3.org/2000/svg">
<g clip-path="url(#clip0_93_904)">
<mask id="mask0_93_904" style="mask-type:luminance" maskUnits="userSpaceOnUse" x="0" y="2" width="16" height="12">
<path d="M0.00366211 2.02917H15.9451V13.1647H0.00366211V2.02917Z" fill="white"/>
</mask>
<g mask="url(#mask0_93_904)">
<path fill-rule="evenodd" clip-rule="evenodd" d="M6.62262 3.2481C7.1372 2.71243 7.85339 2.38071 8.6446 2.38071C9.69954 2.38071 10.6138 2.96679 11.1061 3.84005C11.5431 3.64469 12.0165 3.54383 12.4951 3.54408C14.394 3.54408 15.9354 5.09719 15.9354 7.01367C15.9354 8.93016 14.394 10.4833 12.4951 10.4833C12.2631 10.4833 12.0368 10.4599 11.8153 10.4159C11.3845 11.1836 10.5611 11.7052 9.62335 11.7052C9.24157 11.706 8.86467 11.6194 8.52152 11.4521C8.08489 12.4777 7.06804 13.1986 5.88416 13.1986C4.64753 13.1986 3.59844 12.4191 3.19405 11.3231C3.01406 11.3611 2.8306 11.3802 2.64665 11.3801C1.17558 11.3801 -0.0141602 10.1728 -0.0141602 8.68998C-0.0141602 7.69364 0.521517 6.82624 1.31624 6.35738C1.14764 5.96898 1.06086 5.55002 1.0613 5.12661C1.0613 3.41525 2.45031 2.0321 4.16166 2.0321C5.16386 2.0321 6.06057 2.50976 6.6232 3.25115" fill="#00A1E0"/>
</g>
</g>
<defs>
<clipPath id="clip0_93_904">
<rect width="16" height="11.1941" fill="white" transform="translate(0 2)"/>
</clipPath>
</defs>
</svg>
