<svg width="16" height="16" viewBox="0 0 16 16" fill="none" xmlns="http://www.w3.org/2000/svg">
<g clip-path="url(#clip0_1598_27228)">
<mask id="mask0_1598_27228" style="mask-type:luminance" maskUnits="userSpaceOnUse" x="0" y="2" width="16" height="12">
<path d="M0.00390625 2.0293H15.9453V13.1648H0.00390625V2.0293Z" fill="white"/>
</mask>
<g mask="url(#mask0_1598_27228)">
<path fill-rule="evenodd" clip-rule="evenodd" d="M6.62311 3.24823C7.13768 2.71255 7.85387 2.38083 8.64508 2.38083C9.70003 2.38083 10.6143 2.96691 11.1066 3.84017C11.5436 3.64481 12.017 3.54395 12.4956 3.5442C14.3945 3.5442 15.9359 5.09731 15.9359 7.01379C15.9359 8.93028 14.3945 10.4834 12.4956 10.4834C12.2635 10.4834 12.0373 10.4601 11.8158 10.416C11.385 11.1838 10.5616 11.7054 9.62384 11.7054C9.24206 11.7061 8.86516 11.6195 8.52201 11.4522C8.08538 12.4778 7.06853 13.1987 5.88464 13.1987C4.64801 13.1987 3.59893 12.4192 3.19453 11.3232C3.01455 11.3612 2.83109 11.3803 2.64713 11.3802C1.17607 11.3802 -0.0136719 10.1729 -0.0136719 8.6901C-0.0136719 7.69377 0.522006 6.82637 1.31673 6.3575C1.14813 5.96911 1.06134 5.55014 1.06179 5.12673C1.06179 3.41538 2.4508 2.03223 4.16215 2.03223C5.16435 2.03223 6.06105 2.50988 6.62369 3.25127" fill="#00A1E0"/>
</g>
<path fill-rule="evenodd" clip-rule="evenodd" d="M2.30929 7.81969C2.29927 7.84583 2.31286 7.85128 2.31609 7.85591C2.34604 7.8776 2.37645 7.8933 2.40693 7.91095C2.56986 7.9971 2.72341 8.0223 2.884 8.0223C3.21103 8.0223 3.4144 7.84824 3.4144 7.56809V7.56258C3.4144 7.30353 3.18466 7.20917 2.97015 7.14177L2.94208 7.13269C2.77974 7.08006 2.63966 7.03423 2.63966 6.92756V6.92211C2.63966 6.83068 2.72171 6.76328 2.84831 6.76328C2.98897 6.76328 3.15659 6.81011 3.26384 6.86936C3.26384 6.86936 3.2956 6.88988 3.30715 6.85922C3.31342 6.84264 3.3681 6.69629 3.37396 6.67988C3.38018 6.66271 3.36927 6.64976 3.35808 6.64308C3.235 6.56806 3.06504 6.51707 2.88922 6.51707L2.85657 6.51719C2.55708 6.51719 2.34785 6.69829 2.34785 6.95733V6.9629C2.34785 7.23602 2.57877 7.3251 2.79445 7.38664L2.82914 7.39742C2.98621 7.44572 3.12218 7.48768 3.12218 7.59786V7.60337C3.12218 7.70476 3.03368 7.78037 2.89185 7.78037C2.8367 7.78037 2.66094 7.77943 2.47046 7.65905C2.44743 7.64563 2.4343 7.63596 2.41654 7.62511C2.40716 7.61943 2.38372 7.60917 2.37352 7.63988L2.30905 7.81922M7.09733 7.81922C7.08731 7.84536 7.10091 7.85081 7.10425 7.85544C7.13408 7.87713 7.16461 7.89284 7.19509 7.91048C7.35802 7.99663 7.51158 8.02183 7.67216 8.02183C7.99919 8.02183 8.20256 7.84777 8.20256 7.56762V7.56211C8.20256 7.30306 7.97341 7.2087 7.75831 7.1413L7.73024 7.13222C7.5679 7.07959 7.42782 7.03376 7.42782 6.92709V6.92164C7.42782 6.83021 7.50987 6.76281 7.63647 6.76281C7.77713 6.76281 7.94416 6.80964 8.052 6.86889C8.052 6.86889 8.08377 6.88941 8.09537 6.85876C8.10158 6.84217 8.15632 6.69583 8.1616 6.67941C8.16787 6.66224 8.15691 6.64929 8.14577 6.64261C8.0227 6.56759 7.85273 6.5166 7.67691 6.5166L7.6442 6.51672C7.34472 6.51672 7.13549 6.69782 7.13549 6.95687V6.96243C7.13549 7.23555 7.3664 7.32463 7.58208 7.38617L7.61672 7.39695C7.77437 7.44525 7.90976 7.48721 7.90976 7.59739V7.6029C7.90976 7.70429 7.82126 7.7799 7.67943 7.7799C7.62416 7.7799 7.44793 7.77896 7.25804 7.65858C7.235 7.64516 7.22152 7.6359 7.20406 7.62465C7.19814 7.62089 7.17053 7.61011 7.1611 7.63941L7.09663 7.81876M10.367 7.27018C10.367 7.42843 10.3374 7.55326 10.2796 7.64176C10.222 7.72909 10.1349 7.77187 10.0136 7.77187C9.89223 7.77187 9.80549 7.72944 9.74864 7.64235C9.69138 7.55443 9.66249 7.42901 9.66249 7.27077C9.66249 7.11253 9.69156 6.98828 9.74864 6.90095C9.80538 6.81421 9.89165 6.7726 10.0136 6.7726C10.1355 6.7726 10.2222 6.81462 10.2796 6.90095C10.3378 6.98828 10.367 7.11253 10.367 7.27077M10.6401 6.97714C10.6132 6.8863 10.5715 6.80659 10.5158 6.73978C10.4601 6.67297 10.3898 6.61905 10.306 6.58037C10.2228 6.54139 10.1243 6.52176 10.013 6.52176C9.90161 6.52176 9.80374 6.54151 9.71993 6.58037C9.6367 6.61928 9.56579 6.67297 9.51011 6.73978C9.45455 6.80659 9.41282 6.8863 9.38586 6.97714C9.35919 7.0674 9.34565 7.16586 9.34565 7.27077C9.34565 7.37568 9.35919 7.47414 9.38586 7.5644C9.41264 7.65524 9.45443 7.73495 9.51011 7.80176C9.56585 7.86857 9.6367 7.92191 9.71993 7.96C9.80374 7.99798 9.9022 8.01732 10.013 8.01732C10.1237 8.01732 10.2222 7.99798 10.3054 7.96C10.3886 7.92202 10.4596 7.86857 10.5152 7.80176C10.5709 7.73495 10.6125 7.65524 10.6395 7.5644C10.6661 7.47414 10.6796 7.37568 10.6796 7.27077C10.6796 7.16645 10.6661 7.0674 10.6395 6.97714M12.8842 7.72733C12.8752 7.70078 12.8493 7.7108 12.8493 7.7108C12.8096 7.72598 12.7673 7.74004 12.7221 7.74708C12.6766 7.75423 12.626 7.7578 12.5727 7.7578C12.4408 7.7578 12.3353 7.71848 12.2603 7.64059C12.1847 7.56264 12.1425 7.43722 12.1431 7.26725C12.1435 7.11253 12.1809 6.99648 12.248 6.9074C12.3142 6.81949 12.4162 6.77377 12.551 6.77377C12.6635 6.77377 12.7497 6.78684 12.8399 6.81509C12.8399 6.81509 12.8613 6.82441 12.8716 6.79622C12.8955 6.72999 12.9132 6.68252 12.939 6.60985C12.9462 6.58904 12.9284 6.58025 12.9219 6.57773C12.8865 6.5639 12.8029 6.54122 12.7396 6.53166C12.6805 6.52264 12.6119 6.51795 12.5345 6.51795C12.4196 6.51795 12.3177 6.53758 12.2303 6.5765C12.143 6.61536 12.0692 6.6691 12.0106 6.73591C11.952 6.80273 11.9074 6.88243 11.8775 6.97328C11.8479 7.06353 11.833 7.16258 11.833 7.26749C11.833 7.49371 11.8939 7.67716 12.0147 7.81137C12.1354 7.94617 12.3171 8.01415 12.5539 8.01415C12.6939 8.01415 12.8375 7.98585 12.9407 7.945C12.9407 7.945 12.9604 7.9355 12.9518 7.91253L12.8844 7.72733M13.3621 7.1178C13.3751 7.02989 13.3992 6.95663 13.4371 6.89978C13.4938 6.81304 13.5801 6.76557 13.7014 6.76557C13.8227 6.76557 13.903 6.81328 13.9605 6.89978C13.9985 6.95692 14.0152 7.03282 14.0214 7.1178L13.3591 7.11769L13.3621 7.1178ZM14.2822 6.9244C14.2589 6.83707 14.2013 6.74857 14.1638 6.70813C14.104 6.64425 14.046 6.59912 13.988 6.57451C13.9042 6.53889 13.8141 6.5206 13.7231 6.52076C13.6076 6.52076 13.5027 6.54028 13.4177 6.57996C13.3328 6.61993 13.2613 6.67432 13.205 6.7423C13.1488 6.81029 13.1065 6.89058 13.0796 6.98259C13.0526 7.07344 13.039 7.17307 13.039 7.27739C13.039 7.38406 13.0531 7.48311 13.0809 7.57278C13.109 7.66303 13.1542 7.74215 13.2151 7.8078C13.2761 7.87402 13.354 7.9256 13.4478 7.96193C13.541 7.99798 13.6541 8.01667 13.7836 8.01626C14.0509 8.01539 14.1915 7.9559 14.249 7.92366C14.2592 7.91792 14.2689 7.90802 14.2568 7.87947L14.1965 7.7101C14.1872 7.68484 14.1617 7.69398 14.1617 7.69398C14.0954 7.71871 14.0017 7.76314 13.7819 7.76255C13.6383 7.76232 13.5322 7.71994 13.4654 7.65354C13.3974 7.58555 13.3634 7.48651 13.3581 7.34585L14.2841 7.34655C14.2841 7.34655 14.3085 7.34632 14.311 7.32252C14.312 7.31267 14.3428 7.13263 14.2834 6.92457L14.2822 6.9244ZM5.95987 7.1178C5.97294 7.02989 5.99708 6.95663 6.03489 6.89978C6.09162 6.81304 6.17789 6.76557 6.29921 6.76557C6.42053 6.76557 6.50082 6.81328 6.55826 6.89978C6.59629 6.95692 6.61294 7.03282 6.61921 7.1178L5.95694 7.11769L5.95987 7.1178ZM6.88001 6.9244C6.85681 6.83707 6.79913 6.74857 6.76163 6.70813C6.70185 6.64425 6.64382 6.59912 6.5858 6.57451C6.50203 6.53889 6.41192 6.5206 6.32089 6.52076C6.20544 6.52076 6.10053 6.54028 6.01555 6.57996C5.93056 6.61993 5.85906 6.67432 5.8028 6.7423C5.74671 6.81029 5.70434 6.89058 5.67738 6.98259C5.65048 7.07344 5.63694 7.17307 5.63694 7.27739C5.63694 7.38406 5.65094 7.48311 5.6789 7.57278C5.70692 7.66303 5.75216 7.74215 5.81253 7.8078C5.87348 7.87402 5.95143 7.9256 6.0452 7.96193C6.13839 7.99798 6.25092 8.01667 6.38103 8.01626C6.64828 8.01539 6.78894 7.9559 6.84637 7.92366C6.85657 7.91792 6.8663 7.90802 6.85417 7.87947L6.7938 7.7101C6.78448 7.68484 6.75893 7.69398 6.75893 7.69398C6.6927 7.71871 6.59893 7.76314 6.37915 7.76255C6.23615 7.76232 6.12948 7.71994 6.06267 7.65354C5.99468 7.58555 5.96069 7.48651 5.95541 7.34585L6.88142 7.34655C6.88142 7.34655 6.9058 7.34632 6.90832 7.32252C6.90932 7.31267 6.94003 7.13263 6.88066 6.92457L6.88001 6.9244ZM3.96133 7.72147C3.92505 7.69251 3.92001 7.68542 3.908 7.66661C3.88966 7.6383 3.88028 7.59804 3.88028 7.54646C3.88028 7.46558 3.90724 7.40697 3.96292 7.36771C3.96233 7.36782 4.04262 7.29855 4.23134 7.30089C4.31534 7.3024 4.39914 7.30955 4.48218 7.32229V7.74251H4.4823C4.4823 7.74251 4.36508 7.76777 4.23263 7.77574C4.0445 7.78705 3.96127 7.72158 3.96186 7.72176L3.96133 7.72147ZM4.32939 7.07092C4.29188 7.06816 4.24324 7.06681 4.18522 7.06681C4.10609 7.06681 4.02932 7.07666 3.95782 7.096C3.88573 7.11546 3.82067 7.14558 3.765 7.18567C3.70917 7.2255 3.66324 7.27764 3.63078 7.33805C3.59802 7.399 3.58132 7.47051 3.58132 7.55139C3.58132 7.63344 3.59556 7.70435 3.62369 7.76237C3.65126 7.81993 3.69276 7.86968 3.74442 7.90714C3.79582 7.94453 3.8593 7.97219 3.93256 7.9886C4.00523 8.00519 4.08728 8.01357 4.17754 8.01357C4.27248 8.01357 4.36684 8.0056 4.45827 7.99018C4.53614 7.97675 4.61372 7.96167 4.69094 7.94494C4.72177 7.93785 4.756 7.92853 4.756 7.92853C4.77886 7.92273 4.7771 7.89829 4.7771 7.89829L4.77657 7.05433C4.77657 6.86913 4.72711 6.7314 4.62946 6.64642C4.53218 6.56144 4.38976 6.51865 4.20514 6.51865C4.13598 6.51865 4.02404 6.52803 3.95723 6.54145C3.95723 6.54145 3.75562 6.5806 3.6724 6.64577C3.6724 6.64577 3.65411 6.65703 3.66407 6.68252L3.72971 6.85835C3.73786 6.88114 3.76007 6.87335 3.76007 6.87335C3.76007 6.87335 3.76705 6.87059 3.77525 6.86573C3.95283 6.76903 4.17789 6.77196 4.17789 6.77196C4.27752 6.77196 4.35489 6.79218 4.40646 6.83174C4.45692 6.87048 4.48265 6.92903 4.48265 7.0521V7.0912C4.40353 7.07971 4.33027 7.07308 4.33027 7.07308L4.32939 7.07092ZM11.7726 6.59443C11.7739 6.59134 11.7746 6.58801 11.7747 6.58465C11.7747 6.58128 11.774 6.57795 11.7727 6.57484C11.7714 6.57174 11.7695 6.56892 11.7671 6.56657C11.7647 6.56422 11.7619 6.56237 11.7587 6.56114C11.743 6.55517 11.6644 6.53858 11.604 6.53483C11.488 6.52756 11.4235 6.54714 11.3655 6.57316C11.3081 6.599 11.2447 6.64056 11.2096 6.68862L11.2095 6.57609C11.2095 6.56062 11.1985 6.54813 11.1829 6.54813H10.9461C10.9308 6.54813 10.9196 6.56062 10.9196 6.57609V7.95338C10.9196 7.96082 10.9226 7.96795 10.9279 7.97321C10.9331 7.97847 10.9403 7.98144 10.9477 7.98145H11.1903C11.1978 7.98144 11.2049 7.97847 11.2102 7.97321C11.2154 7.96795 11.2184 7.96081 11.2184 7.95338V7.2618C11.2184 7.1692 11.2286 7.07719 11.2489 7.01917C11.2689 6.96179 11.2962 6.91602 11.3298 6.88319C11.3618 6.8515 11.401 6.82798 11.4441 6.81462C11.4845 6.80303 11.5263 6.79715 11.5683 6.79716C11.6167 6.79716 11.6697 6.80958 11.6697 6.80958C11.6875 6.81158 11.6974 6.80067 11.7035 6.78462C11.7193 6.74236 11.7644 6.61583 11.7732 6.59062" fill="#F7F7F8"/>
<path fill-rule="evenodd" clip-rule="evenodd" d="M9.50667 5.9587C9.47668 5.94964 9.44616 5.9424 9.4153 5.93702C9.37378 5.93009 9.33173 5.92683 9.28964 5.92729C9.12243 5.92729 8.99062 5.97453 8.89808 6.06783C8.80618 6.16043 8.74365 6.3015 8.71229 6.48711L8.70098 6.54976H8.49111C8.49111 6.54976 8.46549 6.54871 8.4601 6.57667L8.42564 6.7689C8.42324 6.7873 8.43115 6.79879 8.45577 6.79867H8.66007L8.45278 7.95577C8.43654 8.04896 8.41796 8.12562 8.39739 8.1837C8.37711 8.24102 8.3573 8.28398 8.33292 8.31516C8.3093 8.34534 8.28692 8.36755 8.24829 8.3805C8.21641 8.39123 8.17972 8.39615 8.13952 8.39615C8.11713 8.39615 8.08736 8.3924 8.06538 8.38801C8.0434 8.38367 8.03197 8.37875 8.0155 8.37183C8.0155 8.37183 7.99153 8.36269 7.9821 8.38672C7.97442 8.40635 7.91997 8.55609 7.91352 8.57461C7.90696 8.5929 7.91616 8.60732 7.92777 8.61148C7.95496 8.62121 7.97518 8.62742 8.01222 8.63615C8.06368 8.64828 8.10705 8.64905 8.14766 8.64905C8.23276 8.64905 8.3103 8.63709 8.37459 8.61388C8.4393 8.5905 8.49562 8.54976 8.54544 8.49461C8.5993 8.43513 8.63317 8.37283 8.66558 8.28785C8.69764 8.20363 8.72495 8.09907 8.74681 7.97722L8.95511 6.79867H9.25963C9.25963 6.79867 9.2853 6.79961 9.29064 6.77177L9.3251 6.57954C9.3275 6.56113 9.31965 6.54965 9.29492 6.54976H8.99936C9.00082 6.54308 9.01424 6.43911 9.04818 6.34124C9.06265 6.29945 9.0899 6.26575 9.113 6.2426C9.13456 6.22055 9.16111 6.20403 9.19042 6.19442C9.22254 6.18449 9.25602 6.17967 9.28964 6.18012C9.31748 6.18012 9.34479 6.18346 9.3656 6.1878C9.39426 6.1939 9.40539 6.19712 9.41289 6.19935C9.44302 6.20855 9.44706 6.19964 9.45298 6.18505L9.52366 5.99094C9.53093 5.97007 9.51323 5.96128 9.50667 5.9587ZM5.37632 7.95823C5.37632 7.97371 5.3653 7.98631 5.34983 7.98631H5.10467C5.08914 7.98631 5.07812 7.97371 5.07812 7.95823V5.98502C5.07812 5.9696 5.08914 5.95712 5.10467 5.95712H5.34983C5.3653 5.95712 5.37632 5.9696 5.37632 5.98502V7.95823Z" fill="#F7F7F8"/>
</g>
<defs>
<clipPath id="clip0_1598_27228">
<rect width="16" height="11.1941" fill="white" transform="translate(0 2)"/>
</clipPath>
</defs>
</svg>
