<svg width="16" height="16" viewBox="0 0 16 16" fill="none" xmlns="http://www.w3.org/2000/svg">
<g clip-path="url(#clip0_93_899)">
<path d="M14.452 0.347558C13.7663 -0.265585 12.932 -0.0192994 12.1091 0.709843C11.9874 0.818415 11.8657 0.938415 11.7446 1.06699C10.1966 2.89771 9.12628 5.08337 8.62914 7.4287C8.7826 7.7635 8.9039 8.11211 8.99143 8.46984C9.012 8.54984 9.03086 8.62527 9.04857 8.68927C9.084 8.8407 9.10571 8.93899 9.10571 8.93899C9.10571 8.93899 9.09314 8.89156 9.04114 8.74127L9.00743 8.64413C9.00171 8.6287 8.99429 8.61042 8.98571 8.59042C8.89429 8.37727 8.64286 7.92756 8.52857 7.73327C8.43314 8.01499 8.34857 8.27841 8.27829 8.5167C8.51554 9.027 8.68978 9.56428 8.79714 10.1167C8.79714 10.1167 8.78 10.051 8.69943 9.82241C8.54462 9.48859 8.37297 9.16284 8.18514 8.84642C8.06368 9.15988 8.01219 9.49611 8.03429 9.83156C8.16014 10.0825 8.25475 10.3479 8.316 10.6218C8.50686 11.355 8.63943 12.2481 8.63943 12.2481C8.63943 12.2481 8.644 12.3053 8.65086 12.3984C8.62577 13.0091 8.63817 13.6207 8.688 14.2298C8.71633 14.833 8.82865 15.4292 9.02171 16.0013L9.12457 15.9441C8.88515 15.0843 8.7928 14.1902 8.85143 13.2996C8.959 11.4114 9.3318 9.54779 9.95886 7.76356C11.1074 4.73042 12.7017 2.29613 14.1589 1.13499C12.8297 2.33499 11.0309 6.2207 10.492 7.65956C9.92457 9.14104 9.49345 10.6712 9.204 12.231C9.5485 11.3605 10.223 10.6613 11.0806 10.2858C11.0806 10.2858 11.7851 9.4167 12.6086 8.17556C12.0766 8.28651 11.5511 8.42634 11.0343 8.59442C10.6343 8.76242 10.5263 8.81956 10.5263 8.81956C11.2899 8.35971 12.0966 7.9756 12.9349 7.6727C14.464 5.26413 16.1303 1.84413 14.4526 0.344701" fill="#F7F7F8"/>
<path d="M11.3945 0.709961C11.3901 0.714594 11.3852 0.718984 11.3809 0.723633L11.3711 0.734375L11.3623 0.744141C9.76308 2.63563 8.65662 4.89368 8.1416 7.31641L8.05469 7.57324C7.9579 7.85899 7.87143 8.12888 7.79883 8.375L7.74512 8.55664L7.75488 8.5752L7.71875 8.66602C7.57109 9.04725 7.50831 9.4563 7.53516 9.86426L7.54199 9.96484L7.58691 10.0557C7.69438 10.2699 7.77579 10.4966 7.82812 10.7305L7.83203 10.748C7.92283 11.0969 8.00157 11.4892 8.05762 11.7988C8.08544 11.9525 8.10706 12.084 8.12207 12.1768C8.12957 12.2231 8.13582 12.2604 8.13965 12.2852C8.14037 12.2898 8.14102 12.2941 8.1416 12.2979L8.14453 12.3271C8.1461 12.3475 8.14788 12.3754 8.15039 12.4092C8.1267 13.0158 8.1387 13.6233 8.18652 14.2285H2.06934C1.74514 14.2276 1.43432 14.0984 1.20508 13.8691C0.976042 13.64 0.846731 13.3298 0.845703 13.0059V1.93359C0.846608 1.6094 0.975837 1.29858 1.20508 1.06934C1.43432 0.840094 1.74514 0.710866 2.06934 0.709961H11.3945ZM12.1064 0.711914C9.75369 4.51594 8.6315 10.8077 8.68164 14.126C8.63855 13.5512 8.62673 12.9744 8.65039 12.3984C8.64365 12.3069 8.63978 12.2499 8.63965 12.248C8.63853 12.2405 8.50641 11.352 8.31641 10.6221C8.25519 10.3482 8.15995 10.0829 8.03418 9.83203C8.01209 9.49666 8.06414 9.16009 8.18555 8.84668C8.37324 9.16292 8.5445 9.48865 8.69922 9.82227C8.77979 10.0508 8.79688 10.1172 8.79688 10.1172C8.68951 9.56477 8.51558 9.0269 8.27832 8.5166C8.34858 8.27843 8.43295 8.01496 8.52832 7.7334C8.6426 7.92768 8.89392 8.37767 8.98535 8.59082C8.99388 8.61073 9.00212 8.62916 9.00781 8.64453L9.04102 8.74121C9.09302 8.8915 9.10547 8.93945 9.10547 8.93945C9.10547 8.93945 9.08422 8.84074 9.04883 8.68945C9.03111 8.62546 9.01178 8.54972 8.99121 8.46973C8.90369 8.11205 8.78234 7.76345 8.62891 7.42871C9.12599 5.08363 10.1965 2.89799 11.7441 1.06738C11.8644 0.939775 11.9856 0.819846 12.1064 0.711914Z" fill="#F7F7F8"/>
</g>
<defs>
<clipPath id="clip0_93_899">
<rect width="16" height="16" fill="white"/>
</clipPath>
</defs>
</svg>
