<svg width="17" height="17" viewBox="0 0 17 17" fill="none" xmlns="http://www.w3.org/2000/svg">
<path d="M13.4319 1.58417H2.203C1.44949 1.58417 0.837952 2.1349 0.837952 2.8026V13.8562C0.837952 14.5288 1.45495 15.0747 2.203 15.0747H9.60157C9.51967 11.7898 10.7755 5.41492 13.4346 1.57442L13.4319 1.58417Z" fill="#0F80CC"/>
<path d="M13.0224 1.94238H2.20301C1.94619 1.94302 1.70009 2.03437 1.51849 2.19647C1.33689 2.35856 1.23455 2.57823 1.23383 2.80747V13.0545C3.68546 12.2138 7.3629 11.49 9.90735 11.5241C10.6918 8.2685 11.7309 5.06656 13.0224 1.94238Z" fill="url(#paint0_linear_4_4)"/>
<path d="M16.0528 1.2235C15.2829 0.614286 14.3519 0.857981 13.4319 1.58417L13.0224 1.93994C11.4499 3.42643 10.0193 6.18496 9.53878 8.29285C9.70998 8.62669 9.84527 8.97428 9.94284 9.33095L10.0029 9.57464L10.063 9.8232C10.063 9.8232 10.0493 9.77446 9.99198 9.62825L9.95376 9.53078C9.94609 9.51272 9.93789 9.49485 9.92919 9.47717C9.77263 9.18495 9.6023 8.89877 9.41866 8.61939C9.31933 8.87851 9.22558 9.1393 9.13746 9.40162C9.49783 9.99134 9.71624 11.0002 9.71624 11.0002C9.71624 11.0002 9.69713 10.9344 9.60704 10.7078C9.52513 10.5055 9.12654 9.87925 9.03371 9.73304C8.86991 10.2691 8.80712 10.6298 8.86445 10.7175C8.97365 10.8881 9.08286 11.2049 9.17841 11.5071C9.32585 12.0429 9.44609 12.5845 9.53878 13.13L9.55243 13.2811C9.52413 13.8905 9.53781 14.5009 9.59338 15.1088C9.66437 15.8715 9.79814 16.527 9.96741 16.8779L10.0821 16.8219C9.83636 16.1298 9.73262 15.2257 9.7763 14.1803C9.84455 12.5842 10.2541 10.659 11.0158 8.65351C12.3071 5.60011 14.0871 3.16812 15.7197 2.00817C14.2318 3.20711 12.2197 7.0866 11.6191 8.52191C10.9448 10.1302 10.467 11.6411 10.1776 13.0862C10.6745 11.7313 12.2798 11.1464 12.2798 11.1464C12.2798 11.1464 13.0715 10.2789 13.9888 9.03853L12.2279 9.45767L11.6601 9.68186C11.6601 9.68186 13.107 8.89475 14.3547 8.53654C16.0665 6.13135 17.9311 2.71243 16.0528 1.22107" fill="#003B57"/>
<defs>
<linearGradient id="paint0_linear_4_4" x1="10.066" y1="1.20425" x2="10.066" y2="15.9902" gradientUnits="userSpaceOnUse">
<stop stop-color="#97D9F6"/>
<stop offset="0.92024" stop-color="#0F80CC"/>
<stop offset="1" stop-color="#0F80CC"/>
</linearGradient>
</defs>
</svg>
