<svg width="511" height="588" viewBox="0 0 511 588" fill="none" xmlns="http://www.w3.org/2000/svg">
<path d="M401.958 26.7849H44.3151C20.3157 26.7849 0.837952 46.9877 0.837952 71.4812V476.966C0.837952 501.639 20.4896 521.662 44.3151 521.662H279.961C277.353 401.161 317.352 167.31 402.045 26.4274L401.958 26.7849Z" fill="#0F80CC"/>
<path d="M388.915 39.9257H44.3151C36.1353 39.9492 28.297 43.3003 22.513 49.2465C16.7289 55.1927 13.4693 63.2508 13.4464 71.66V447.556C91.5313 416.716 208.659 390.166 289.7 391.417C314.684 271.989 347.781 154.531 388.915 39.9257Z" fill="url(#paint0_linear_2_7)"/>
<path d="M485.434 13.5548C460.913 -8.79332 431.262 0.145939 401.958 26.7849L388.915 39.8363C338.829 94.3658 293.265 195.558 277.961 272.883C283.414 285.129 287.723 297.88 290.831 310.964L292.744 319.903L294.657 329.021C294.657 329.021 294.222 327.234 292.396 321.87L291.178 318.294C290.934 317.632 290.673 316.976 290.396 316.328C285.409 305.608 279.984 295.11 274.135 284.861C270.972 294.367 267.986 303.933 265.179 313.556C276.657 335.189 283.613 372.198 283.613 372.198C283.613 372.198 283.005 369.784 280.135 361.471C277.527 354.051 264.831 331.077 261.875 325.714C256.658 345.38 254.658 358.61 256.484 361.828C259.962 368.086 263.44 379.707 266.483 390.792C271.179 410.449 275.009 430.314 277.961 450.327L278.396 455.87C277.495 478.224 277.93 500.614 279.7 522.914C281.961 550.894 286.222 574.94 291.613 587.813L295.265 585.757C287.439 560.369 284.135 527.205 285.526 488.855C287.7 430.303 300.743 359.683 325.004 286.113C366.133 174.104 422.827 84.8901 474.826 42.3393C427.436 86.3204 363.351 228.633 344.221 281.286C322.743 340.285 307.526 395.708 298.309 448.718C314.134 399.016 365.264 377.562 365.264 377.562C365.264 377.562 390.48 345.738 419.697 300.237L363.611 315.612L345.525 323.837C345.525 323.837 391.611 294.963 431.349 281.822C485.869 193.592 545.259 68.1737 485.434 13.4654" fill="#003B57"/>
<defs>
<linearGradient id="paint0_linear_2_7" x1="230.049" y1="48.2392" x2="230.049" y2="424.94" gradientUnits="userSpaceOnUse">
<stop stop-color="#97D9F6"/>
<stop offset="0.92024" stop-color="#0F80CC"/>
<stop offset="1" stop-color="#0F80CC"/>
</linearGradient>
</defs>
</svg>
